<svg xmlns="http://www.w3.org/2000/svg" viewBox="0 0 24 34" width="24" height="34" shape-rendering="crispEdges">
  <path fill="#000000" d="M5 0h5v1h-5zM5 1h1v1h-1zM9 1h1v1h-1zM4 2h2v1h-2zM9 2h2v1h-2zM4 3h1v1h-1zM10 3h1v1h-1zM4 4h1v1h-1zM10 4h1v1h-1zM15 4h4v1h-4zM4 5h1v1h-1zM10 5h4v1h-4zM15 5h1v1h-1zM18 5h1v1h-1zM4 6h1v1h-1zM13 6h3v1h-3zM18 6h2v1h-2zM4 7h1v1h-1zM14 7h1v1h-1zM19 7h1v1h-1zM4 8h1v1h-1zM14 8h1v1h-1zM19 8h4v1h-4zM4 9h1v1h-1zM14 9h1v1h-1zM19 9h1v1h-1zM22 9h2v1h-2zM4 10h1v1h-1zM14 10h1v1h-1zM19 10h1v1h-1zM23 10h1v1h-1zM1 11h4v1h-4zM14 11h1v1h-1zM19 11h1v1h-1zM23 11h1v1h-1zM1 12h1v1h-1zM4 12h1v1h-1zM14 12h1v1h-1zM19 12h1v1h-1zM23 12h1v1h-1zM0 13h2v1h-2zM4 13h1v1h-1zM14 13h1v1h-1zM19 13h1v1h-1zM23 13h1v1h-1zM0 14h1v1h-1zM4 14h1v1h-1zM14 14h1v1h-1zM19 14h1v1h-1zM23 14h1v1h-1zM0 15h1v1h-1zM4 15h1v1h-1zM19 15h1v1h-1zM23 15h1v1h-1zM0 16h1v1h-1zM4 16h1v1h-1zM19 16h1v1h-1zM23 16h1v1h-1zM0 17h1v1h-1zM4 17h1v1h-1zM19 17h1v1h-1zM23 17h1v1h-1zM0 18h1v1h-1zM4 18h1v1h-1zM19 18h1v1h-1zM23 18h1v1h-1zM0 19h1v1h-1zM4 19h1v1h-1zM23 19h1v1h-1zM0 20h1v1h-1zM4 20h1v1h-1zM10 20h2v1h-2zM23 20h1v1h-1zM0 21h1v1h-1zM4 21h1v1h-1zM10 21h2v1h-2zM23 21h1v1h-1zM0 22h1v1h-1zM10 22h2v1h-2zM19 22h5v1h-5zM0 23h1v1h-1zM10 23h2v1h-2zM19 23h1v1h-1zM0 24h1v1h-1zM10 24h2v1h-2zM19 24h1v1h-1zM0 25h5v1h-5zM10 25h2v1h-2zM19 25h1v1h-1zM4 26h1v1h-1zM10 26h5v1h-5zM19 26h1v1h-1zM4 27h1v1h-1zM10 27h1v1h-1zM14 27h1v1h-1zM19 27h1v1h-1zM4 28h1v1h-1zM10 28h1v1h-1zM14 28h1v1h-1zM19 28h1v1h-1zM4 29h1v1h-1zM10 29h1v1h-1zM14 29h1v1h-1zM19 29h1v1h-1zM4 30h1v1h-1zM10 30h1v1h-1zM14 30h1v1h-1zM19 30h1v1h-1zM4 31h1v1h-1zM10 31h1v1h-1zM14 31h1v1h-1zM19 31h1v1h-1zM4 32h1v1h-1zM10 32h1v1h-1zM14 32h1v1h-1zM19 32h1v1h-1zM4 33h7v1h-7zM14 33h6v1h-6z"/>
  <path fill="#ACACAC" d="M6 1h3v1h-3zM6 2h3v1h-3zM5 3h5v1h-5zM5 4h5v1h-5zM5 5h5v1h-5zM16 5h2v1h-2zM5 6h8v1h-8zM16 6h2v1h-2zM5 7h9v1h-9zM15 7h4v1h-4zM5 8h9v1h-9zM15 8h4v1h-4zM5 9h9v1h-9zM15 9h4v1h-4zM20 9h2v1h-2zM5 10h9v1h-9zM15 10h4v1h-4zM20 10h3v1h-3zM5 11h9v1h-9zM15 11h4v1h-4zM20 11h3v1h-3zM2 12h2v1h-2zM5 12h9v1h-9zM15 12h4v1h-4zM20 12h3v1h-3zM2 13h2v1h-2zM5 13h9v1h-9zM15 13h4v1h-4zM20 13h3v1h-3zM1 14h3v1h-3zM5 14h9v1h-9zM15 14h4v1h-4zM20 14h3v1h-3zM1 15h3v1h-3zM5 15h14v1h-14zM20 15h3v1h-3zM1 16h3v1h-3zM5 16h14v1h-14zM20 16h3v1h-3zM1 17h3v1h-3zM5 17h14v1h-14zM20 17h3v1h-3zM1 18h3v1h-3zM5 18h14v1h-14zM20 18h3v1h-3zM1 19h3v1h-3zM5 19h18v1h-18zM1 20h3v1h-3zM5 20h5v1h-5zM12 20h11v1h-11zM1 21h3v1h-3zM5 21h5v1h-5zM12 21h11v1h-11zM1 22h9v1h-9zM12 22h7v1h-7zM1 23h9v1h-9zM12 23h7v1h-7zM1 24h9v1h-9zM12 24h7v1h-7zM5 25h5v1h-5zM12 25h7v1h-7zM5 26h5v1h-5zM15 26h4v1h-4zM5 27h5v1h-5zM15 27h4v1h-4zM5 28h5v1h-5zM15 28h4v1h-4zM5 29h5v1h-5zM15 29h4v1h-4zM5 30h5v1h-5zM15 30h4v1h-4zM5 31h5v1h-5zM15 31h4v1h-4zM5 32h5v1h-5zM15 32h4v1h-4z"/>
</svg>