<svg xmlns="http://www.w3.org/2000/svg" viewBox="0 0 78 50" width="78" height="50" shape-rendering="crispEdges">
  <path fill="#000000" d="M8 0h2v2h-2zM15 0h2v2h-2zM62 0h1v2h-1zM68 0h2v2h-2zM7 1h1v28h-1zM17 1h1v28h-1zM33 1h4v2h-4zM61 1h1v21h-1zM70 1h1v28h-1zM8 2h1v27h-1zM16 2h1v27h-1zM32 2h1v29h-1zM37 2h1v17h-1zM69 2h1v27h-1zM31 3h1v28h-1zM36 3h1v1h-1zM38 3h1v16h-1zM54 5h4v2h-4zM41 6h2v3h-2zM53 6h1v21h-1zM58 6h1v15h-1zM40 7h1v12h-1zM43 7h1v14h-1zM52 7h1v20h-1zM54 7h1v1h-1zM57 7h1v1h-1zM59 7h1v15h-1zM39 8h1v11h-1zM44 8h1v12h-1zM20 10h3v2h-3zM73 10h4v2h-4zM1 11h3v2h-3zM19 11h1v18h-1zM23 11h1v19h-1zM77 11h1v2h-1zM0 12h1v2h-1zM4 12h2v2h-2zM18 12h1v17h-1zM20 12h1v1h-1zM22 12h1v1h-1zM24 12h1v20h-1zM72 12h2v1h-2zM1 13h1v1h-1zM71 13h2v16h-2zM5 14h2v15h-2zM26 16h3v2h-3zM25 17h1v16h-1zM29 17h1v2h-1zM26 18h1v1h-1zM30 18h1v13h-1zM42 19h1v3h-1zM47 19h2v2h-2zM41 20h1v3h-1zM46 20h1v2h-1zM49 20h1v17h-1zM60 20h1v2h-1zM37 21h4v2h-4zM45 21h1v16h-1zM48 21h1v1h-1zM50 21h1v16h-1zM37 23h2v27h-2zM54 23h1v15h-1zM41 24h2v3h-2zM55 24h1v13h-1zM40 25h1v13h-1zM43 25h1v11h-1zM51 25h1v12h-1zM56 25h1v3h-1zM39 26h1v11h-1zM44 26h1v11h-1zM57 26h5v2h-5zM77 27h1v2h-1zM22 28h1v3h-1zM61 28h1v22h-1zM76 28h1v2h-1zM75 29h1v2h-1zM0 30h2v1h-2zM21 30h1v2h-1zM74 30h1v2h-1zM1 31h2v1h-2zM20 31h1v2h-1zM73 31h1v3h-1zM2 32h2v2h-2zM16 32h4v2h-4zM26 32h1v2h-1zM69 32h4v2h-4zM4 33h1v3h-1zM27 33h1v2h-1zM3 34h1v1h-1zM5 34h4v2h-4zM16 34h2v16h-2zM28 34h1v2h-1zM69 34h2v16h-2zM29 35h4v2h-4zM7 36h2v14h-2zM41 36h1v3h-1zM53 36h1v3h-1zM31 37h2v13h-2zM42 37h1v3h-1zM52 37h1v3h-1zM43 38h1v3h-1zM49 38h3v2h-3zM44 39h2v2h-2zM49 40h2v10h-2zM45 41h1v9h-1zM19 46h2v3h-2zM72 46h2v3h-2zM18 47h1v1h-1zM21 47h1v1h-1zM71 47h1v1h-1zM74 47h1v1h-1zM4 48h3v2h-3zM57 48h4v2h-4zM3 49h1v1h-1zM19 49h1v1h-1zM56 49h1v1h-1zM73 49h1v1h-1z"/>
  <path fill="#ACACAC" d="M10 0h5v49h-5zM63 0h5v49h-5zM9 2h1v47h-1zM15 2h1v47h-1zM62 2h1v47h-1zM68 2h1v47h-1zM33 3h3v46h-3zM36 4h1v45h-1zM55 7h2v17h-2zM54 8h1v15h-1zM57 8h1v18h-1zM41 9h2v10h-2zM21 12h1v18h-1zM74 12h3v16h-3zM2 13h2v18h-2zM20 13h1v18h-1zM22 13h1v15h-1zM73 13h1v18h-1zM77 13h1v14h-1zM0 14h2v16h-2zM4 14h1v19h-1zM27 18h2v15h-2zM26 19h1v13h-1zM29 19h1v16h-1zM37 19h5v1h-5zM37 20h4v1h-4zM47 21h1v28h-1zM58 21h1v5h-1zM46 22h1v27h-1zM48 22h1v27h-1zM59 22h3v4h-3zM56 24h1v1h-1zM41 27h2v9h-2zM52 27h2v9h-2zM74 28h2v1h-2zM5 29h4v5h-4zM16 29h4v3h-4zM69 29h4v3h-4zM74 29h1v1h-1zM3 31h1v1h-1zM30 31h3v4h-3zM28 33h1v1h-1zM42 36h2v1h-2zM52 36h1v1h-1zM43 37h3v1h-3zM49 37h3v1h-3zM44 38h2v1h-2z"/>
</svg>
