<svg xmlns="http://www.w3.org/2000/svg" viewBox="0 0 17 35" width="17" height="35" shape-rendering="crispEdges">
  <path fill="#000000" d="M7 0h3v1h-3zM6 1h2v1h-2zM9 1h2v1h-2zM5 2h2v18h-2zM10 2h2v14h-2zM13 4h1v2h-1zM12 5h1v11h-1zM14 5h1v13h-1zM15 6h1v11h-1zM3 8h2v2h-2zM2 9h1v13h-1zM1 10h1v11h-1zM13 17h1v3h-1zM10 19h3v1h-3zM10 20h2v14h-2zM3 21h1v2h-1zM4 22h1v3h-1zM5 23h2v11h-2zM6 34h5v1h-5z"/>
  <path fill="#ACACAC" d="M8 1h1v33h-1zM7 2h1v32h-1zM9 2h1v32h-1zM13 6h1v11h-1zM3 10h2v11h-2zM10 16h3v3h-3zM5 20h2v3h-2zM4 21h1v1h-1z"/>
</svg>
