<svg xmlns="http://www.w3.org/2000/svg" viewBox="0 0 50 50" width="50" height="50" shape-rendering="crispEdges">
  <path fill="#000000" d="M10 0h5v1h-5zM35 0h5v1h-5zM9 1h1v26h-1zM15 1h2v2h-2zM34 1h1v20h-1zM40 1h2v2h-2zM8 2h1v26h-1zM17 2h1v26h-1zM33 2h1v19h-1zM42 2h1v26h-1zM16 3h1v25h-1zM41 3h1v25h-1zM27 5h3v1h-3zM26 6h2v1h-2zM30 6h2v2h-2zM25 7h2v16h-2zM32 7h1v14h-1zM31 8h1v13h-1zM20 10h3v1h-3zM45 10h3v1h-3zM19 11h1v16h-1zM22 11h3v2h-3zM44 11h1v16h-1zM48 11h2v2h-2zM2 12h3v1h-3zM18 12h1v16h-1zM43 12h1v16h-1zM1 13h2v1h-2zM5 13h2v2h-2zM23 13h2v14h-2zM49 13h1v15h-1zM0 14h2v16h-2zM7 14h1v14h-1zM6 15h1v13h-1zM27 22h1v3h-1zM28 24h2v1h-2zM29 25h1v1h-1zM30 26h5v2h-5zM22 27h2v1h-2zM48 27h1v1h-1zM21 28h2v1h-2zM33 28h2v18h-2zM47 28h1v2h-1zM2 29h1v2h-1zM20 29h2v1h-2zM46 29h1v2h-1zM16 30h4v1h-4zM45 30h1v1h-1zM3 31h2v2h-2zM16 31h2v19h-2zM41 31h4v2h-4zM5 32h5v1h-5zM8 33h2v13h-2zM41 33h2v17h-2zM19 44h1v4h-1zM44 44h1v4h-1zM5 45h3v1h-3zM18 45h1v1h-1zM20 45h2v1h-2zM30 45h3v1h-3zM43 45h1v1h-1zM45 45h2v1h-2zM4 46h1v2h-1zM6 46h2v2h-2zM29 46h1v2h-1zM31 46h2v2h-2zM5 47h1v1h-1zM8 47h8v1h-8zM30 47h1v1h-1zM33 47h8v1h-8zM15 48h1v2h-1zM40 48h1v2h-1z"/>
  <path fill="#ACACAC" d="M10 1h5v45h-5zM35 1h5v45h-5zM15 3h1v43h-1zM40 3h1v43h-1zM28 6h2v18h-2zM27 7h1v15h-1zM30 8h1v18h-1zM20 11h2v17h-2zM45 11h3v17h-3zM3 13h2v18h-2zM22 13h1v14h-1zM48 13h1v14h-1zM2 14h1v15h-1zM5 15h1v17h-1zM31 21h4v5h-4zM9 27h1v5h-1zM19 27h1v3h-1zM44 27h1v4h-1zM6 28h3v4h-3zM16 28h3v2h-3zM20 28h1v1h-1zM41 28h3v3h-3zM45 28h2v1h-2zM45 29h1v1h-1z"/>
</svg>
