<svg xmlns="http://www.w3.org/2000/svg" viewBox="0 0 51 35" width="51" height="35" shape-rendering="crispEdges">
  <path fill="#000000" d="M7 0h4v2h-4zM24 0h4v2h-4zM41 0h4v2h-4zM6 1h1v19h-1zM11 1h1v15h-1zM23 1h1v2h-1zM28 1h1v23h-1zM40 1h1v2h-1zM45 1h1v18h-1zM5 2h1v19h-1zM10 2h1v1h-1zM12 2h1v14h-1zM22 2h1v20h-1zM27 2h1v1h-1zM29 2h1v22h-1zM39 2h1v14h-1zM44 2h1v1h-1zM46 2h1v17h-1zM19 3h2v2h-2zM36 3h2v2h-2zM14 4h1v2h-1zM18 4h1v19h-1zM21 4h1v18h-1zM35 4h1v15h-1zM38 4h1v12h-1zM48 4h1v2h-1zM13 5h1v11h-1zM15 5h1v2h-1zM17 5h1v17h-1zM20 5h1v1h-1zM34 5h1v14h-1zM37 5h1v1h-1zM47 5h1v13h-1zM49 5h1v2h-1zM16 6h1v11h-1zM50 6h1v14h-1zM31 7h1v2h-1zM2 8h2v2h-2zM30 8h1v15h-1zM32 8h1v2h-1zM1 9h1v14h-1zM4 9h1v12h-1zM33 9h1v16h-1zM0 10h1v12h-1zM3 10h1v1h-1zM15 17h1v2h-1zM36 17h1v3h-1zM14 18h1v2h-1zM37 18h1v3h-1zM11 19h3v2h-3zM38 19h2v2h-2zM49 19h1v2h-1zM48 20h1v2h-1zM2 21h1v3h-1zM11 21h2v13h-2zM19 21h1v3h-1zM39 21h1v13h-1zM45 21h3v2h-3zM3 22h1v3h-1zM20 22h1v3h-1zM4 23h3v2h-3zM21 23h1v1h-1zM45 23h2v11h-2zM22 24h1v10h-1zM32 24h1v1h-1zM5 25h2v9h-2zM31 25h1v2h-1zM28 26h3v2h-3zM28 28h2v6h-2zM6 34h6v1h-6zM23 34h6v1h-6zM40 34h6v1h-6z"/>
  <path fill="#ACACAC" d="M7 2h3v32h-3zM24 2h3v32h-3zM41 2h3v32h-3zM10 3h1v31h-1zM23 3h1v31h-1zM27 3h1v31h-1zM40 3h1v31h-1zM44 3h1v31h-1zM19 5h1v16h-1zM36 5h1v12h-1zM14 6h1v12h-1zM20 6h1v16h-1zM37 6h1v12h-1zM48 6h1v14h-1zM15 7h1v10h-1zM49 7h1v12h-1zM31 9h1v16h-1zM2 10h1v11h-1zM32 10h1v14h-1zM3 11h1v11h-1zM11 16h3v3h-3zM38 16h2v3h-2zM47 18h1v3h-1zM45 19h2v2h-2zM6 20h1v3h-1zM4 21h2v2h-2zM21 22h2v1h-2zM22 23h1v1h-1zM30 23h1v3h-1zM28 24h2v2h-2z"/>
</svg>
