<svg xmlns="http://www.w3.org/2000/svg" viewBox="0 0 54 45" width="54" height="45" shape-rendering="crispEdges">
  <path fill="#000000" d="M19 0h5v1h-5zM19 1h1v1h-1zM23 1h1v1h-1zM18 2h2v1h-2zM23 2h2v1h-2zM18 3h1v1h-1zM24 3h1v1h-1zM18 4h1v1h-1zM24 4h1v1h-1zM18 5h1v1h-1zM24 5h6v1h-6zM18 6h1v1h-1zM24 6h2v1h-2zM29 6h1v1h-1zM18 7h1v1h-1zM24 7h2v1h-2zM29 7h1v1h-1zM33 7h5v1h-5zM18 8h1v1h-1zM24 8h2v1h-2zM29 8h2v1h-2zM33 8h1v1h-1zM37 8h1v1h-1zM18 9h1v1h-1zM24 9h2v1h-2zM30 9h1v1h-1zM32 9h2v1h-2zM37 9h2v1h-2zM18 10h1v1h-1zM24 10h2v1h-2zM30 10h1v1h-1zM32 10h1v1h-1zM38 10h1v1h-1zM5 11h5v1h-5zM18 11h1v1h-1zM24 11h2v1h-2zM30 11h1v1h-1zM32 11h1v1h-1zM38 11h1v1h-1zM5 12h1v1h-1zM9 12h1v1h-1zM18 12h1v1h-1zM24 12h2v1h-2zM30 12h1v1h-1zM32 12h1v1h-1zM38 12h5v1h-5zM4 13h2v1h-2zM9 13h2v1h-2zM18 13h1v1h-1zM24 13h2v1h-2zM30 13h1v1h-1zM32 13h1v1h-1zM38 13h1v1h-1zM42 13h1v1h-1zM45 13h4v1h-4zM4 14h1v1h-1zM10 14h1v1h-1zM18 14h1v1h-1zM24 14h2v1h-2zM30 14h1v1h-1zM32 14h1v1h-1zM38 14h1v1h-1zM42 14h2v1h-2zM45 14h1v1h-1zM48 14h1v1h-1zM4 15h1v1h-1zM10 15h1v1h-1zM13 15h6v1h-6zM24 15h2v1h-2zM30 15h1v1h-1zM32 15h1v1h-1zM38 15h1v1h-1zM43 15h3v1h-3zM48 15h2v1h-2zM4 16h1v1h-1zM10 16h4v1h-4zM18 16h1v1h-1zM24 16h2v1h-2zM30 16h1v1h-1zM32 16h1v1h-1zM38 16h1v1h-1zM43 16h2v1h-2zM49 16h1v1h-1zM4 17h1v1h-1zM13 17h1v1h-1zM18 17h1v1h-1zM24 17h2v1h-2zM30 17h1v1h-1zM32 17h1v1h-1zM38 17h1v1h-1zM43 17h2v1h-2zM49 17h4v1h-4zM4 18h1v1h-1zM18 18h1v1h-1zM24 18h2v1h-2zM30 18h1v1h-1zM32 18h1v1h-1zM38 18h1v1h-1zM43 18h2v1h-2zM49 18h1v1h-1zM52 18h1v1h-1zM4 19h1v1h-1zM18 19h1v1h-1zM24 19h2v1h-2zM30 19h1v1h-1zM32 19h1v1h-1zM38 19h1v1h-1zM43 19h2v1h-2zM49 19h1v1h-1zM52 19h2v1h-2zM4 20h1v1h-1zM18 20h1v1h-1zM24 20h2v1h-2zM30 20h3v1h-3zM38 20h1v1h-1zM43 20h2v1h-2zM49 20h1v1h-1zM53 20h1v1h-1zM4 21h1v1h-1zM18 21h1v1h-1zM32 21h1v1h-1zM38 21h1v1h-1zM43 21h2v1h-2zM49 21h1v1h-1zM53 21h1v1h-1zM1 22h4v1h-4zM18 22h1v1h-1zM32 22h1v1h-1zM38 22h1v1h-1zM43 22h2v1h-2zM49 22h1v1h-1zM53 22h1v1h-1zM1 23h1v1h-1zM4 23h1v1h-1zM18 23h1v1h-1zM32 23h1v1h-1zM38 23h1v1h-1zM43 23h2v1h-2zM49 23h1v1h-1zM53 23h1v1h-1zM0 24h2v1h-2zM4 24h1v1h-1zM18 24h1v1h-1zM32 24h1v1h-1zM38 24h1v1h-1zM43 24h2v1h-2zM49 24h1v1h-1zM53 24h1v1h-1zM0 25h1v1h-1zM4 25h1v1h-1zM18 25h1v1h-1zM32 25h1v1h-1zM38 25h1v1h-1zM44 25h1v1h-1zM49 25h1v1h-1zM53 25h1v1h-1zM0 26h1v1h-1zM4 26h1v1h-1zM18 26h1v1h-1zM24 26h4v1h-4zM32 26h1v1h-1zM44 26h1v1h-1zM49 26h1v1h-1zM53 26h1v1h-1zM0 27h1v1h-1zM4 27h1v1h-1zM18 27h1v1h-1zM24 27h1v1h-1zM27 27h1v1h-1zM32 27h1v1h-1zM44 27h1v1h-1zM49 27h1v1h-1zM53 27h1v1h-1zM0 28h1v1h-1zM4 28h1v1h-1zM24 28h1v1h-1zM27 28h1v1h-1zM32 28h1v1h-1zM44 28h1v1h-1zM49 28h1v1h-1zM53 28h1v1h-1zM0 29h1v1h-1zM4 29h1v1h-1zM24 29h1v1h-1zM27 29h1v1h-1zM32 29h1v1h-1zM38 29h3v1h-3zM44 29h1v1h-1zM53 29h1v1h-1zM0 30h1v1h-1zM4 30h1v1h-1zM24 30h1v1h-1zM27 30h1v1h-1zM32 30h1v1h-1zM38 30h1v1h-1zM40 30h1v1h-1zM44 30h1v1h-1zM53 30h1v1h-1zM0 31h1v1h-1zM4 31h1v1h-1zM10 31h3v1h-3zM24 31h1v1h-1zM27 31h1v1h-1zM38 31h1v1h-1zM40 31h1v1h-1zM44 31h1v1h-1zM53 31h1v1h-1zM0 32h1v1h-1zM4 32h1v1h-1zM10 32h1v1h-1zM12 32h1v1h-1zM24 32h1v1h-1zM27 32h1v1h-1zM38 32h1v1h-1zM40 32h1v1h-1zM44 32h1v1h-1zM49 32h5v1h-5zM0 33h1v1h-1zM10 33h1v1h-1zM12 33h7v1h-7zM24 33h1v1h-1zM27 33h1v1h-1zM38 33h1v1h-1zM40 33h1v1h-1zM49 33h1v1h-1zM0 34h1v1h-1zM10 34h1v1h-1zM18 34h1v1h-1zM24 34h1v1h-1zM27 34h1v1h-1zM38 34h1v1h-1zM40 34h1v1h-1zM49 34h1v1h-1zM0 35h1v1h-1zM10 35h1v1h-1zM18 35h1v1h-1zM24 35h1v1h-1zM27 35h6v1h-6zM38 35h1v1h-1zM40 35h1v1h-1zM49 35h1v1h-1zM0 36h5v1h-5zM10 36h1v1h-1zM18 36h1v1h-1zM24 36h1v1h-1zM32 36h1v1h-1zM38 36h1v1h-1zM40 36h1v1h-1zM49 36h1v1h-1zM4 37h1v1h-1zM10 37h1v1h-1zM18 37h1v1h-1zM24 37h1v1h-1zM32 37h1v1h-1zM38 37h1v1h-1zM40 37h5v1h-5zM49 37h1v1h-1zM4 38h1v1h-1zM10 38h1v1h-1zM18 38h1v1h-1zM24 38h1v1h-1zM32 38h1v1h-1zM38 38h1v1h-1zM44 38h1v1h-1zM49 38h1v1h-1zM4 39h1v1h-1zM10 39h1v1h-1zM18 39h1v1h-1zM24 39h1v1h-1zM32 39h1v1h-1zM38 39h1v1h-1zM44 39h1v1h-1zM49 39h1v1h-1zM4 40h1v1h-1zM10 40h1v1h-1zM18 40h1v1h-1zM24 40h1v1h-1zM32 40h1v1h-1zM38 40h1v1h-1zM44 40h1v1h-1zM49 40h1v1h-1zM4 41h1v1h-1zM10 41h1v1h-1zM18 41h1v1h-1zM24 41h1v1h-1zM32 41h1v1h-1zM38 41h1v1h-1zM44 41h1v1h-1zM49 41h1v1h-1zM4 42h1v1h-1zM10 42h1v1h-1zM18 42h1v1h-1zM24 42h1v1h-1zM32 42h1v1h-1zM38 42h1v1h-1zM44 42h1v1h-1zM49 42h1v1h-1zM4 43h1v1h-1zM10 43h1v1h-1zM18 43h7v1h-7zM32 43h1v1h-1zM38 43h1v1h-1zM44 43h1v1h-1zM49 43h1v1h-1zM4 44h7v1h-7zM32 44h7v1h-7zM44 44h6v1h-6z"/>
  <path fill="#ACACAC" d="M20 1h3v1h-3zM20 2h3v1h-3zM19 3h5v1h-5zM19 4h5v1h-5zM19 5h5v1h-5zM19 6h5v1h-5zM26 6h3v1h-3zM19 7h5v1h-5zM26 7h3v1h-3zM19 8h5v1h-5zM26 8h3v1h-3zM34 8h3v1h-3zM19 9h5v1h-5zM26 9h4v1h-4zM34 9h3v1h-3zM19 10h5v1h-5zM26 10h4v1h-4zM33 10h5v1h-5zM19 11h5v1h-5zM26 11h4v1h-4zM33 11h5v1h-5zM6 12h3v1h-3zM19 12h5v1h-5zM26 12h4v1h-4zM33 12h5v1h-5zM6 13h3v1h-3zM19 13h5v1h-5zM26 13h4v1h-4zM33 13h5v1h-5zM39 13h3v1h-3zM5 14h5v1h-5zM19 14h5v1h-5zM26 14h4v1h-4zM33 14h5v1h-5zM39 14h3v1h-3zM46 14h2v1h-2zM5 15h5v1h-5zM19 15h5v1h-5zM26 15h4v1h-4zM33 15h5v1h-5zM39 15h4v1h-4zM46 15h2v1h-2zM5 16h5v1h-5zM14 16h4v1h-4zM19 16h5v1h-5zM26 16h4v1h-4zM33 16h5v1h-5zM39 16h4v1h-4zM45 16h4v1h-4zM5 17h8v1h-8zM14 17h4v1h-4zM19 17h5v1h-5zM26 17h4v1h-4zM33 17h5v1h-5zM39 17h4v1h-4zM45 17h4v1h-4zM5 18h13v1h-13zM19 18h5v1h-5zM26 18h4v1h-4zM33 18h5v1h-5zM39 18h4v1h-4zM45 18h4v1h-4zM50 18h2v1h-2zM5 19h13v1h-13zM19 19h5v1h-5zM26 19h4v1h-4zM33 19h5v1h-5zM39 19h4v1h-4zM45 19h4v1h-4zM50 19h2v1h-2zM5 20h13v1h-13zM19 20h5v1h-5zM26 20h4v1h-4zM33 20h5v1h-5zM39 20h4v1h-4zM45 20h4v1h-4zM50 20h3v1h-3zM5 21h13v1h-13zM19 21h13v1h-13zM33 21h5v1h-5zM39 21h4v1h-4zM45 21h4v1h-4zM50 21h3v1h-3zM5 22h13v1h-13zM19 22h13v1h-13zM33 22h5v1h-5zM39 22h4v1h-4zM45 22h4v1h-4zM50 22h3v1h-3zM2 23h2v1h-2zM5 23h13v1h-13zM19 23h13v1h-13zM33 23h5v1h-5zM39 23h4v1h-4zM45 23h4v1h-4zM50 23h3v1h-3zM2 24h2v1h-2zM5 24h13v1h-13zM19 24h13v1h-13zM33 24h5v1h-5zM39 24h4v1h-4zM45 24h4v1h-4zM50 24h3v1h-3zM1 25h3v1h-3zM5 25h13v1h-13zM19 25h13v1h-13zM33 25h5v1h-5zM39 25h5v1h-5zM45 25h4v1h-4zM50 25h3v1h-3zM1 26h3v1h-3zM5 26h13v1h-13zM19 26h5v1h-5zM28 26h4v1h-4zM33 26h11v1h-11zM45 26h4v1h-4zM50 26h3v1h-3zM1 27h3v1h-3zM5 27h13v1h-13zM19 27h5v1h-5zM28 27h4v1h-4zM33 27h11v1h-11zM45 27h4v1h-4zM50 27h3v1h-3zM1 28h3v1h-3zM5 28h19v1h-19zM28 28h4v1h-4zM33 28h11v1h-11zM45 28h4v1h-4zM50 28h3v1h-3zM1 29h3v1h-3zM5 29h19v1h-19zM28 29h4v1h-4zM33 29h5v1h-5zM41 29h3v1h-3zM45 29h8v1h-8zM1 30h3v1h-3zM5 30h19v1h-19zM28 30h4v1h-4zM33 30h5v1h-5zM41 30h3v1h-3zM45 30h8v1h-8zM1 31h3v1h-3zM5 31h5v1h-5zM13 31h11v1h-11zM28 31h10v1h-10zM41 31h3v1h-3zM45 31h8v1h-8zM1 32h3v1h-3zM5 32h5v1h-5zM13 32h11v1h-11zM28 32h10v1h-10zM41 32h3v1h-3zM45 32h4v1h-4zM1 33h9v1h-9zM19 33h5v1h-5zM28 33h10v1h-10zM41 33h8v1h-8zM1 34h9v1h-9zM19 34h5v1h-5zM28 34h10v1h-10zM41 34h8v1h-8zM1 35h9v1h-9zM19 35h5v1h-5zM33 35h5v1h-5zM41 35h8v1h-8zM5 36h5v1h-5zM19 36h5v1h-5zM33 36h5v1h-5zM41 36h8v1h-8zM5 37h5v1h-5zM19 37h5v1h-5zM33 37h5v1h-5zM45 37h4v1h-4zM5 38h5v1h-5zM19 38h5v1h-5zM33 38h5v1h-5zM45 38h4v1h-4zM5 39h5v1h-5zM19 39h5v1h-5zM33 39h5v1h-5zM45 39h4v1h-4zM5 40h5v1h-5zM19 40h5v1h-5zM33 40h5v1h-5zM45 40h4v1h-4zM5 41h5v1h-5zM19 41h5v1h-5zM33 41h5v1h-5zM45 41h4v1h-4zM5 42h5v1h-5zM19 42h5v1h-5zM33 42h5v1h-5zM45 42h4v1h-4zM5 43h5v1h-5zM33 43h5v1h-5zM45 43h4v1h-4z"/>
</svg>