<svg xmlns="http://www.w3.org/2000/svg" viewBox="0 0 15 34" width="15" height="34" shape-rendering="crispEdges">
  <path fill="#000000" d="M5 0h5v1h-5zM5 1h1v1h-1zM9 1h1v1h-1zM4 2h2v1h-2zM9 2h2v1h-2zM4 3h1v1h-1zM10 3h1v1h-1zM4 4h1v1h-1zM10 4h1v1h-1zM4 5h1v1h-1zM10 5h4v1h-4zM4 6h1v1h-1zM13 6h2v1h-2zM4 7h1v1h-1zM14 7h1v1h-1zM4 8h1v1h-1zM14 8h1v1h-1zM4 9h1v1h-1zM14 9h1v1h-1zM4 10h1v1h-1zM14 10h1v1h-1zM1 11h4v1h-4zM14 11h1v1h-1zM1 12h1v1h-1zM4 12h1v1h-1zM14 12h1v1h-1zM0 13h2v1h-2zM4 13h1v1h-1zM14 13h1v1h-1zM0 14h1v1h-1zM4 14h1v1h-1zM14 14h1v1h-1zM0 15h1v1h-1zM4 15h1v1h-1zM14 15h1v1h-1zM0 16h1v1h-1zM4 16h1v1h-1zM14 16h1v1h-1zM0 17h1v1h-1zM4 17h1v1h-1zM14 17h1v1h-1zM0 18h1v1h-1zM4 18h1v1h-1zM14 18h1v1h-1zM0 19h1v1h-1zM4 19h1v1h-1zM14 19h1v1h-1zM0 20h1v1h-1zM4 20h1v1h-1zM10 20h5v1h-5zM0 21h1v1h-1zM4 21h1v1h-1zM10 21h1v1h-1zM0 22h1v1h-1zM10 22h1v1h-1zM0 23h1v1h-1zM10 23h1v1h-1zM0 24h1v1h-1zM10 24h1v1h-1zM0 25h5v1h-5zM10 25h1v1h-1zM4 26h1v1h-1zM10 26h1v1h-1zM4 27h1v1h-1zM10 27h1v1h-1zM4 28h1v1h-1zM10 28h1v1h-1zM4 29h1v1h-1zM10 29h1v1h-1zM4 30h1v1h-1zM10 30h1v1h-1zM4 31h1v1h-1zM10 31h1v1h-1zM4 32h1v1h-1zM10 32h1v1h-1zM4 33h7v1h-7z"/>
  <path fill="#ACACAC" d="M6 1h3v1h-3zM6 2h3v1h-3zM5 3h5v1h-5zM5 4h5v1h-5zM5 5h5v1h-5zM5 6h8v1h-8zM5 7h9v1h-9zM5 8h9v1h-9zM5 9h9v1h-9zM5 10h9v1h-9zM5 11h9v1h-9zM2 12h2v1h-2zM5 12h9v1h-9zM2 13h2v1h-2zM5 13h9v1h-9zM1 14h3v1h-3zM5 14h9v1h-9zM1 15h3v1h-3zM5 15h9v1h-9zM1 16h3v1h-3zM5 16h9v1h-9zM1 17h3v1h-3zM5 17h9v1h-9zM1 18h3v1h-3zM5 18h9v1h-9zM1 19h3v1h-3zM5 19h9v1h-9zM1 20h3v1h-3zM5 20h5v1h-5zM1 21h3v1h-3zM5 21h5v1h-5zM1 22h9v1h-9zM1 23h9v1h-9zM1 24h9v1h-9zM5 25h5v1h-5zM5 26h5v1h-5zM5 27h5v1h-5zM5 28h5v1h-5zM5 29h5v1h-5zM5 30h5v1h-5zM5 31h5v1h-5zM5 32h5v1h-5z"/>
</svg>