<svg xmlns="http://www.w3.org/2000/svg" viewBox="0 0 31 44" width="31" height="44" shape-rendering="crispEdges">
  <path fill="#000000" d="M7 0h5v1h-5zM7 1h1v1h-1zM11 1h1v1h-1zM6 2h2v1h-2zM11 2h2v1h-2zM6 3h1v1h-1zM12 3h1v1h-1zM6 4h1v1h-1zM12 4h1v1h-1zM6 5h1v1h-1zM12 5h6v1h-6zM20 5h5v1h-5zM6 6h1v1h-1zM12 6h2v1h-2zM17 6h1v1h-1zM20 6h1v1h-1zM24 6h1v1h-1zM6 7h1v1h-1zM12 7h2v1h-2zM17 7h1v1h-1zM19 7h2v1h-2zM24 7h2v1h-2zM6 8h1v1h-1zM12 8h2v1h-2zM17 8h3v1h-3zM25 8h1v1h-1zM6 9h1v1h-1zM12 9h2v1h-2zM18 9h2v1h-2zM25 9h1v1h-1zM6 10h1v1h-1zM12 10h2v1h-2zM18 10h2v1h-2zM25 10h5v1h-5zM6 11h1v1h-1zM12 11h2v1h-2zM18 11h2v1h-2zM25 11h1v1h-1zM29 11h1v1h-1zM6 12h1v1h-1zM12 12h2v1h-2zM18 12h2v1h-2zM25 12h1v1h-1zM29 12h2v1h-2zM6 13h1v1h-1zM12 13h2v1h-2zM18 13h2v1h-2zM25 13h1v1h-1zM30 13h1v1h-1zM6 14h1v1h-1zM12 14h2v1h-2zM18 14h2v1h-2zM25 14h1v1h-1zM30 14h1v1h-1zM1 15h6v1h-6zM12 15h2v1h-2zM18 15h2v1h-2zM25 15h1v1h-1zM30 15h1v1h-1zM1 16h1v1h-1zM6 16h1v1h-1zM12 16h2v1h-2zM18 16h2v1h-2zM25 16h1v1h-1zM30 16h1v1h-1zM0 17h2v1h-2zM6 17h1v1h-1zM12 17h2v1h-2zM18 17h2v1h-2zM25 17h1v1h-1zM30 17h1v1h-1zM0 18h1v1h-1zM6 18h1v1h-1zM12 18h2v1h-2zM18 18h2v1h-2zM25 18h1v1h-1zM30 18h1v1h-1zM0 19h1v1h-1zM6 19h1v1h-1zM12 19h2v1h-2zM19 19h1v1h-1zM25 19h1v1h-1zM30 19h1v1h-1zM0 20h1v1h-1zM6 20h1v1h-1zM12 20h2v1h-2zM19 20h1v1h-1zM25 20h1v1h-1zM30 20h1v1h-1zM0 21h1v1h-1zM6 21h1v1h-1zM19 21h1v1h-1zM25 21h1v1h-1zM30 21h1v1h-1zM0 22h1v1h-1zM6 22h1v1h-1zM19 22h1v1h-1zM25 22h1v1h-1zM30 22h1v1h-1zM0 23h1v1h-1zM6 23h1v1h-1zM19 23h1v1h-1zM25 23h1v1h-1zM30 23h1v1h-1zM0 24h1v1h-1zM6 24h1v1h-1zM19 24h1v1h-1zM30 24h1v1h-1zM0 25h1v1h-1zM6 25h1v1h-1zM19 25h1v1h-1zM30 25h1v1h-1zM0 26h1v1h-1zM6 26h1v1h-1zM12 26h3v1h-3zM19 26h1v1h-1zM30 26h1v1h-1zM0 27h1v1h-1zM6 27h1v1h-1zM12 27h1v1h-1zM14 27h1v1h-1zM19 27h1v1h-1zM30 27h1v1h-1zM0 28h1v1h-1zM12 28h1v1h-1zM14 28h1v1h-1zM19 28h1v1h-1zM25 28h6v1h-6zM0 29h1v1h-1zM12 29h1v1h-1zM14 29h1v1h-1zM19 29h1v1h-1zM25 29h1v1h-1zM0 30h1v1h-1zM12 30h1v1h-1zM14 30h1v1h-1zM25 30h1v1h-1zM0 31h1v1h-1zM12 31h1v1h-1zM14 31h1v1h-1zM25 31h1v1h-1zM0 32h1v1h-1zM12 32h1v1h-1zM14 32h1v1h-1zM25 32h1v1h-1zM0 33h7v1h-7zM12 33h1v1h-1zM14 33h1v1h-1zM25 33h1v1h-1zM6 34h1v1h-1zM12 34h1v1h-1zM14 34h6v1h-6zM25 34h1v1h-1zM6 35h1v1h-1zM12 35h1v1h-1zM19 35h1v1h-1zM25 35h1v1h-1zM6 36h1v1h-1zM12 36h1v1h-1zM19 36h1v1h-1zM25 36h1v1h-1zM6 37h1v1h-1zM12 37h1v1h-1zM19 37h1v1h-1zM25 37h1v1h-1zM6 38h1v1h-1zM12 38h1v1h-1zM19 38h1v1h-1zM25 38h1v1h-1zM6 39h1v1h-1zM12 39h1v1h-1zM19 39h1v1h-1zM25 39h1v1h-1zM6 40h1v1h-1zM12 40h1v1h-1zM19 40h1v1h-1zM25 40h1v1h-1zM6 41h1v1h-1zM12 41h1v1h-1zM19 41h1v1h-1zM25 41h1v1h-1zM6 42h1v1h-1zM12 42h1v1h-1zM19 42h1v1h-1zM25 42h1v1h-1zM6 43h7v1h-7zM19 43h7v1h-7z"/>
  <path fill="#ACACAC" d="M8 1h3v1h-3zM8 2h3v1h-3zM7 3h5v1h-5zM7 4h5v1h-5zM7 5h5v1h-5zM7 6h5v1h-5zM14 6h3v1h-3zM21 6h3v1h-3zM7 7h5v1h-5zM14 7h3v1h-3zM21 7h3v1h-3zM7 8h5v1h-5zM14 8h3v1h-3zM20 8h5v1h-5zM7 9h5v1h-5zM14 9h4v1h-4zM20 9h5v1h-5zM7 10h5v1h-5zM14 10h4v1h-4zM20 10h5v1h-5zM7 11h5v1h-5zM14 11h4v1h-4zM20 11h5v1h-5zM26 11h3v1h-3zM7 12h5v1h-5zM14 12h4v1h-4zM20 12h5v1h-5zM26 12h3v1h-3zM7 13h5v1h-5zM14 13h4v1h-4zM20 13h5v1h-5zM26 13h4v1h-4zM7 14h5v1h-5zM14 14h4v1h-4zM20 14h5v1h-5zM26 14h4v1h-4zM7 15h5v1h-5zM14 15h4v1h-4zM20 15h5v1h-5zM26 15h4v1h-4zM2 16h4v1h-4zM7 16h5v1h-5zM14 16h4v1h-4zM20 16h5v1h-5zM26 16h4v1h-4zM2 17h4v1h-4zM7 17h5v1h-5zM14 17h4v1h-4zM20 17h5v1h-5zM26 17h4v1h-4zM1 18h5v1h-5zM7 18h5v1h-5zM14 18h4v1h-4zM20 18h5v1h-5zM26 18h4v1h-4zM1 19h5v1h-5zM7 19h5v1h-5zM14 19h5v1h-5zM20 19h5v1h-5zM26 19h4v1h-4zM1 20h5v1h-5zM7 20h5v1h-5zM14 20h5v1h-5zM20 20h5v1h-5zM26 20h4v1h-4zM1 21h5v1h-5zM7 21h12v1h-12zM20 21h5v1h-5zM26 21h4v1h-4zM1 22h5v1h-5zM7 22h12v1h-12zM20 22h5v1h-5zM26 22h4v1h-4zM1 23h5v1h-5zM7 23h12v1h-12zM20 23h5v1h-5zM26 23h4v1h-4zM1 24h5v1h-5zM7 24h12v1h-12zM20 24h10v1h-10zM1 25h5v1h-5zM7 25h12v1h-12zM20 25h10v1h-10zM1 26h5v1h-5zM7 26h5v1h-5zM15 26h4v1h-4zM20 26h10v1h-10zM1 27h5v1h-5zM7 27h5v1h-5zM15 27h4v1h-4zM20 27h10v1h-10zM1 28h11v1h-11zM15 28h4v1h-4zM20 28h5v1h-5zM1 29h11v1h-11zM15 29h4v1h-4zM20 29h5v1h-5zM1 30h11v1h-11zM15 30h10v1h-10zM1 31h11v1h-11zM15 31h10v1h-10zM1 32h11v1h-11zM15 32h10v1h-10zM7 33h5v1h-5zM15 33h10v1h-10zM7 34h5v1h-5zM20 34h5v1h-5zM7 35h5v1h-5zM20 35h5v1h-5zM7 36h5v1h-5zM20 36h5v1h-5zM7 37h5v1h-5zM20 37h5v1h-5zM7 38h5v1h-5zM20 38h5v1h-5zM7 39h5v1h-5zM20 39h5v1h-5zM7 40h5v1h-5zM20 40h5v1h-5zM7 41h5v1h-5zM20 41h5v1h-5zM7 42h5v1h-5zM20 42h5v1h-5z"/>
</svg>