<svg xmlns="http://www.w3.org/2000/svg" viewBox="0 0 19 44" width="19" height="44" shape-rendering="crispEdges">
  <path fill="#000000" d="M7 0h5v1h-5zM7 1h1v1h-1zM11 1h1v1h-1zM6 2h2v1h-2zM11 2h2v1h-2zM6 3h1v1h-1zM12 3h1v1h-1zM6 4h1v1h-1zM12 4h1v1h-1zM6 5h1v1h-1zM12 5h6v1h-6zM6 6h1v1h-1zM12 6h2v1h-2zM17 6h1v1h-1zM6 7h1v1h-1zM12 7h2v1h-2zM17 7h1v1h-1zM6 8h1v1h-1zM12 8h2v1h-2zM17 8h2v1h-2zM6 9h1v1h-1zM12 9h2v1h-2zM18 9h1v1h-1zM6 10h1v1h-1zM12 10h2v1h-2zM18 10h1v1h-1zM6 11h1v1h-1zM12 11h2v1h-2zM18 11h1v1h-1zM6 12h1v1h-1zM12 12h2v1h-2zM18 12h1v1h-1zM6 13h1v1h-1zM12 13h2v1h-2zM18 13h1v1h-1zM6 14h1v1h-1zM12 14h2v1h-2zM18 14h1v1h-1zM1 15h6v1h-6zM12 15h2v1h-2zM18 15h1v1h-1zM1 16h1v1h-1zM6 16h1v1h-1zM12 16h2v1h-2zM18 16h1v1h-1zM0 17h2v1h-2zM6 17h1v1h-1zM12 17h2v1h-2zM18 17h1v1h-1zM0 18h1v1h-1zM6 18h1v1h-1zM12 18h2v1h-2zM18 18h1v1h-1zM0 19h1v1h-1zM6 19h1v1h-1zM12 19h2v1h-2zM18 19h1v1h-1zM0 20h1v1h-1zM6 20h1v1h-1zM12 20h2v1h-2zM18 20h1v1h-1zM0 21h1v1h-1zM6 21h1v1h-1zM18 21h1v1h-1zM0 22h1v1h-1zM6 22h1v1h-1zM18 22h1v1h-1zM0 23h1v1h-1zM6 23h1v1h-1zM18 23h1v1h-1zM0 24h1v1h-1zM6 24h1v1h-1zM18 24h1v1h-1zM0 25h1v1h-1zM6 25h1v1h-1zM18 25h1v1h-1zM0 26h1v1h-1zM6 26h1v1h-1zM12 26h7v1h-7zM0 27h1v1h-1zM6 27h1v1h-1zM12 27h1v1h-1zM0 28h1v1h-1zM12 28h1v1h-1zM0 29h1v1h-1zM12 29h1v1h-1zM0 30h1v1h-1zM12 30h1v1h-1zM0 31h1v1h-1zM12 31h1v1h-1zM0 32h1v1h-1zM12 32h1v1h-1zM0 33h7v1h-7zM12 33h1v1h-1zM6 34h1v1h-1zM12 34h1v1h-1zM6 35h1v1h-1zM12 35h1v1h-1zM6 36h1v1h-1zM12 36h1v1h-1zM6 37h1v1h-1zM12 37h1v1h-1zM6 38h1v1h-1zM12 38h1v1h-1zM6 39h1v1h-1zM12 39h1v1h-1zM6 40h1v1h-1zM12 40h1v1h-1zM6 41h1v1h-1zM12 41h1v1h-1zM6 42h1v1h-1zM12 42h1v1h-1zM6 43h7v1h-7z"/>
  <path fill="#ACACAC" d="M8 1h3v1h-3zM8 2h3v1h-3zM7 3h5v1h-5zM7 4h5v1h-5zM7 5h5v1h-5zM7 6h5v1h-5zM14 6h3v1h-3zM7 7h5v1h-5zM14 7h3v1h-3zM7 8h5v1h-5zM14 8h3v1h-3zM7 9h5v1h-5zM14 9h4v1h-4zM7 10h5v1h-5zM14 10h4v1h-4zM7 11h5v1h-5zM14 11h4v1h-4zM7 12h5v1h-5zM14 12h4v1h-4zM7 13h5v1h-5zM14 13h4v1h-4zM7 14h5v1h-5zM14 14h4v1h-4zM7 15h5v1h-5zM14 15h4v1h-4zM2 16h4v1h-4zM7 16h5v1h-5zM14 16h4v1h-4zM2 17h4v1h-4zM7 17h5v1h-5zM14 17h4v1h-4zM1 18h5v1h-5zM7 18h5v1h-5zM14 18h4v1h-4zM1 19h5v1h-5zM7 19h5v1h-5zM14 19h4v1h-4zM1 20h5v1h-5zM7 20h5v1h-5zM14 20h4v1h-4zM1 21h5v1h-5zM7 21h11v1h-11zM1 22h5v1h-5zM7 22h11v1h-11zM1 23h5v1h-5zM7 23h11v1h-11zM1 24h5v1h-5zM7 24h11v1h-11zM1 25h5v1h-5zM7 25h11v1h-11zM1 26h5v1h-5zM7 26h5v1h-5zM1 27h5v1h-5zM7 27h5v1h-5zM1 28h11v1h-11zM1 29h11v1h-11zM1 30h11v1h-11zM1 31h11v1h-11zM1 32h11v1h-11zM7 33h5v1h-5zM7 34h5v1h-5zM7 35h5v1h-5zM7 36h5v1h-5zM7 37h5v1h-5zM7 38h5v1h-5zM7 39h5v1h-5zM7 40h5v1h-5zM7 41h5v1h-5zM7 42h5v1h-5z"/>
</svg>