<svg xmlns="http://www.w3.org/2000/svg" viewBox="0 0 29 40" width="29" height="40" shape-rendering="crispEdges">
  <path fill="#000000" d="M6 0h5v1h-5zM6 1h1v1h-1zM10 1h1v1h-1zM5 2h2v1h-2zM10 2h2v1h-2zM5 3h1v1h-1zM11 3h1v1h-1zM5 4h1v1h-1zM11 4h1v1h-1zM5 5h1v1h-1zM11 5h5v1h-5zM19 5h4v1h-4zM5 6h1v1h-1zM11 6h1v1h-1zM15 6h1v1h-1zM19 6h1v1h-1zM22 6h1v1h-1zM5 7h1v1h-1zM11 7h1v1h-1zM15 7h2v1h-2zM18 7h2v1h-2zM22 7h2v1h-2zM5 8h1v1h-1zM11 8h1v1h-1zM16 8h1v1h-1zM18 8h1v1h-1zM23 8h1v1h-1zM5 9h1v1h-1zM11 9h1v1h-1zM16 9h1v1h-1zM18 9h1v1h-1zM23 9h1v1h-1zM5 10h1v1h-1zM11 10h1v1h-1zM16 10h1v1h-1zM18 10h1v1h-1zM23 10h5v1h-5zM5 11h1v1h-1zM11 11h1v1h-1zM16 11h1v1h-1zM18 11h1v1h-1zM23 11h1v1h-1zM27 11h2v1h-2zM5 12h1v1h-1zM11 12h1v1h-1zM16 12h1v1h-1zM18 12h1v1h-1zM23 12h1v1h-1zM28 12h1v1h-1zM1 13h5v1h-5zM11 13h1v1h-1zM16 13h1v1h-1zM18 13h1v1h-1zM23 13h1v1h-1zM28 13h1v1h-1zM1 14h1v1h-1zM5 14h1v1h-1zM11 14h1v1h-1zM16 14h1v1h-1zM18 14h1v1h-1zM23 14h1v1h-1zM28 14h1v1h-1zM0 15h2v1h-2zM5 15h1v1h-1zM11 15h1v1h-1zM16 15h1v1h-1zM18 15h1v1h-1zM23 15h1v1h-1zM28 15h1v1h-1zM0 16h1v1h-1zM5 16h1v1h-1zM11 16h1v1h-1zM16 16h1v1h-1zM18 16h1v1h-1zM23 16h1v1h-1zM28 16h1v1h-1zM0 17h1v1h-1zM5 17h1v1h-1zM11 17h1v1h-1zM16 17h3v1h-3zM23 17h1v1h-1zM28 17h1v1h-1zM0 18h1v1h-1zM5 18h1v1h-1zM11 18h1v1h-1zM18 18h1v1h-1zM23 18h1v1h-1zM28 18h1v1h-1zM0 19h1v1h-1zM5 19h1v1h-1zM18 19h1v1h-1zM23 19h1v1h-1zM28 19h1v1h-1zM0 20h1v1h-1zM5 20h1v1h-1zM18 20h1v1h-1zM23 20h1v1h-1zM28 20h1v1h-1zM0 21h1v1h-1zM5 21h1v1h-1zM18 21h1v1h-1zM23 21h1v1h-1zM28 21h1v1h-1zM0 22h1v1h-1zM5 22h1v1h-1zM18 22h1v1h-1zM28 22h1v1h-1zM0 23h1v1h-1zM5 23h1v1h-1zM11 23h3v1h-3zM18 23h1v1h-1zM28 23h1v1h-1zM0 24h1v1h-1zM5 24h1v1h-1zM11 24h1v1h-1zM13 24h1v1h-1zM18 24h1v1h-1zM28 24h1v1h-1zM0 25h1v1h-1zM11 25h1v1h-1zM13 25h1v1h-1zM18 25h1v1h-1zM28 25h1v1h-1zM0 26h1v1h-1zM11 26h1v1h-1zM13 26h1v1h-1zM18 26h1v1h-1zM23 26h6v1h-6zM0 27h1v1h-1zM11 27h1v1h-1zM13 27h1v1h-1zM23 27h1v1h-1zM0 28h1v1h-1zM11 28h1v1h-1zM13 28h1v1h-1zM23 28h1v1h-1zM0 29h6v1h-6zM11 29h1v1h-1zM13 29h1v1h-1zM23 29h1v1h-1zM5 30h1v1h-1zM11 30h1v1h-1zM13 30h1v1h-1zM23 30h1v1h-1zM5 31h1v1h-1zM11 31h1v1h-1zM13 31h6v1h-6zM23 31h1v1h-1zM5 32h1v1h-1zM11 32h1v1h-1zM18 32h1v1h-1zM23 32h1v1h-1zM5 33h1v1h-1zM11 33h1v1h-1zM18 33h1v1h-1zM23 33h1v1h-1zM5 34h1v1h-1zM11 34h1v1h-1zM18 34h1v1h-1zM23 34h1v1h-1zM5 35h1v1h-1zM11 35h1v1h-1zM18 35h1v1h-1zM23 35h1v1h-1zM5 36h1v1h-1zM11 36h1v1h-1zM18 36h1v1h-1zM23 36h1v1h-1zM5 37h1v1h-1zM11 37h1v1h-1zM18 37h1v1h-1zM23 37h1v1h-1zM5 38h7v1h-7zM18 38h1v1h-1zM23 38h1v1h-1zM18 39h6v1h-6z"/>
  <path fill="#ACACAC" d="M7 1h3v1h-3zM7 2h3v1h-3zM6 3h5v1h-5zM6 4h5v1h-5zM6 5h5v1h-5zM6 6h5v1h-5zM12 6h3v1h-3zM20 6h2v1h-2zM6 7h5v1h-5zM12 7h3v1h-3zM20 7h2v1h-2zM6 8h5v1h-5zM12 8h4v1h-4zM19 8h4v1h-4zM6 9h5v1h-5zM12 9h4v1h-4zM19 9h4v1h-4zM6 10h5v1h-5zM12 10h4v1h-4zM19 10h4v1h-4zM6 11h5v1h-5zM12 11h4v1h-4zM19 11h4v1h-4zM24 11h3v1h-3zM6 12h5v1h-5zM12 12h4v1h-4zM19 12h4v1h-4zM24 12h4v1h-4zM6 13h5v1h-5zM12 13h4v1h-4zM19 13h4v1h-4zM24 13h4v1h-4zM2 14h3v1h-3zM6 14h5v1h-5zM12 14h4v1h-4zM19 14h4v1h-4zM24 14h4v1h-4zM2 15h3v1h-3zM6 15h5v1h-5zM12 15h4v1h-4zM19 15h4v1h-4zM24 15h4v1h-4zM1 16h4v1h-4zM6 16h5v1h-5zM12 16h4v1h-4zM19 16h4v1h-4zM24 16h4v1h-4zM1 17h4v1h-4zM6 17h5v1h-5zM12 17h4v1h-4zM19 17h4v1h-4zM24 17h4v1h-4zM1 18h4v1h-4zM6 18h5v1h-5zM12 18h6v1h-6zM19 18h4v1h-4zM24 18h4v1h-4zM1 19h4v1h-4zM6 19h12v1h-12zM19 19h4v1h-4zM24 19h4v1h-4zM1 20h4v1h-4zM6 20h12v1h-12zM19 20h4v1h-4zM24 20h4v1h-4zM1 21h4v1h-4zM6 21h12v1h-12zM19 21h4v1h-4zM24 21h4v1h-4zM1 22h4v1h-4zM6 22h12v1h-12zM19 22h9v1h-9zM1 23h4v1h-4zM6 23h5v1h-5zM14 23h4v1h-4zM19 23h9v1h-9zM1 24h4v1h-4zM6 24h5v1h-5zM14 24h4v1h-4zM19 24h9v1h-9zM1 25h10v1h-10zM14 25h4v1h-4zM19 25h9v1h-9zM1 26h10v1h-10zM14 26h4v1h-4zM19 26h4v1h-4zM1 27h10v1h-10zM14 27h9v1h-9zM1 28h10v1h-10zM14 28h9v1h-9zM6 29h5v1h-5zM14 29h9v1h-9zM6 30h5v1h-5zM14 30h9v1h-9zM6 31h5v1h-5zM19 31h4v1h-4zM6 32h5v1h-5zM19 32h4v1h-4zM6 33h5v1h-5zM19 33h4v1h-4zM6 34h5v1h-5zM19 34h4v1h-4zM6 35h5v1h-5zM19 35h4v1h-4zM6 36h5v1h-5zM19 36h4v1h-4zM6 37h5v1h-5zM19 37h4v1h-4zM19 38h4v1h-4z"/>
</svg>