<svg xmlns="http://www.w3.org/2000/svg" viewBox="0 0 17 39" width="17" height="39" shape-rendering="crispEdges">
  <path fill="#000000" d="M6 0h5v1h-5zM6 1h1v1h-1zM10 1h1v1h-1zM5 2h2v1h-2zM10 2h2v1h-2zM5 3h1v1h-1zM11 3h1v1h-1zM5 4h1v1h-1zM11 4h1v1h-1zM5 5h1v1h-1zM11 5h5v1h-5zM5 6h1v1h-1zM11 6h1v1h-1zM15 6h1v1h-1zM5 7h1v1h-1zM11 7h1v1h-1zM15 7h2v1h-2zM5 8h1v1h-1zM11 8h1v1h-1zM16 8h1v1h-1zM5 9h1v1h-1zM11 9h1v1h-1zM16 9h1v1h-1zM5 10h1v1h-1zM11 10h1v1h-1zM16 10h1v1h-1zM5 11h1v1h-1zM11 11h1v1h-1zM16 11h1v1h-1zM5 12h1v1h-1zM11 12h1v1h-1zM16 12h1v1h-1zM1 13h5v1h-5zM11 13h1v1h-1zM16 13h1v1h-1zM1 14h1v1h-1zM5 14h1v1h-1zM11 14h1v1h-1zM16 14h1v1h-1zM0 15h2v1h-2zM5 15h1v1h-1zM11 15h1v1h-1zM16 15h1v1h-1zM0 16h1v1h-1zM5 16h1v1h-1zM11 16h1v1h-1zM16 16h1v1h-1zM0 17h1v1h-1zM5 17h1v1h-1zM11 17h1v1h-1zM16 17h1v1h-1zM0 18h1v1h-1zM5 18h1v1h-1zM11 18h1v1h-1zM16 18h1v1h-1zM0 19h1v1h-1zM5 19h1v1h-1zM16 19h1v1h-1zM0 20h1v1h-1zM5 20h1v1h-1zM16 20h1v1h-1zM0 21h1v1h-1zM5 21h1v1h-1zM16 21h1v1h-1zM0 22h1v1h-1zM5 22h1v1h-1zM16 22h1v1h-1zM0 23h1v1h-1zM5 23h1v1h-1zM11 23h6v1h-6zM0 24h1v1h-1zM5 24h1v1h-1zM11 24h1v1h-1zM0 25h1v1h-1zM11 25h1v1h-1zM0 26h1v1h-1zM11 26h1v1h-1zM0 27h1v1h-1zM11 27h1v1h-1zM0 28h1v1h-1zM11 28h1v1h-1zM0 29h6v1h-6zM11 29h1v1h-1zM5 30h1v1h-1zM11 30h1v1h-1zM5 31h1v1h-1zM11 31h1v1h-1zM5 32h1v1h-1zM11 32h1v1h-1zM5 33h1v1h-1zM11 33h1v1h-1zM5 34h1v1h-1zM11 34h1v1h-1zM5 35h1v1h-1zM11 35h1v1h-1zM5 36h1v1h-1zM11 36h1v1h-1zM5 37h1v1h-1zM11 37h1v1h-1zM5 38h7v1h-7z"/>
  <path fill="#ACACAC" d="M7 1h3v1h-3zM7 2h3v1h-3zM6 3h5v1h-5zM6 4h5v1h-5zM6 5h5v1h-5zM6 6h5v1h-5zM12 6h3v1h-3zM6 7h5v1h-5zM12 7h3v1h-3zM6 8h5v1h-5zM12 8h4v1h-4zM6 9h5v1h-5zM12 9h4v1h-4zM6 10h5v1h-5zM12 10h4v1h-4zM6 11h5v1h-5zM12 11h4v1h-4zM6 12h5v1h-5zM12 12h4v1h-4zM6 13h5v1h-5zM12 13h4v1h-4zM2 14h3v1h-3zM6 14h5v1h-5zM12 14h4v1h-4zM2 15h3v1h-3zM6 15h5v1h-5zM12 15h4v1h-4zM1 16h4v1h-4zM6 16h5v1h-5zM12 16h4v1h-4zM1 17h4v1h-4zM6 17h5v1h-5zM12 17h4v1h-4zM1 18h4v1h-4zM6 18h5v1h-5zM12 18h4v1h-4zM1 19h4v1h-4zM6 19h10v1h-10zM1 20h4v1h-4zM6 20h10v1h-10zM1 21h4v1h-4zM6 21h10v1h-10zM1 22h4v1h-4zM6 22h10v1h-10zM1 23h4v1h-4zM6 23h5v1h-5zM1 24h4v1h-4zM6 24h5v1h-5zM1 25h10v1h-10zM1 26h10v1h-10zM1 27h10v1h-10zM1 28h10v1h-10zM6 29h5v1h-5zM6 30h5v1h-5zM6 31h5v1h-5zM6 32h5v1h-5zM6 33h5v1h-5zM6 34h5v1h-5zM6 35h5v1h-5zM6 36h5v1h-5zM6 37h5v1h-5z"/>
</svg>