<svg xmlns="http://www.w3.org/2000/svg" viewBox="0 0 34 35" width="34" height="35" shape-rendering="crispEdges">
  <path fill="#000000" d="M7 0h4v2h-4zM24 0h4v2h-4zM6 1h1v2h-1zM11 1h1v15h-1zM23 1h1v2h-1zM28 1h1v18h-1zM5 2h1v19h-1zM10 2h1v1h-1zM12 2h1v14h-1zM22 2h1v12h-1zM27 2h1v1h-1zM29 2h1v17h-1zM14 4h1v2h-1zM19 4h3v2h-3zM31 4h1v2h-1zM13 5h1v2h-1zM15 5h1v2h-1zM18 5h1v11h-1zM30 5h1v2h-1zM32 5h1v2h-1zM16 6h2v10h-2zM21 6h1v1h-1zM33 6h1v14h-1zM2 8h2v2h-2zM1 9h1v14h-1zM4 9h1v12h-1zM0 10h1v12h-1zM3 10h1v1h-1zM19 15h1v2h-1zM16 16h1v1h-1zM20 16h1v3h-1zM15 17h1v2h-1zM21 17h2v2h-2zM14 18h1v2h-1zM11 19h3v2h-3zM22 19h1v15h-1zM32 19h1v2h-1zM31 20h1v2h-1zM2 21h1v3h-1zM11 21h2v13h-2zM28 21h3v2h-3zM3 22h1v3h-1zM4 23h2v2h-2zM28 23h2v11h-2zM5 25h1v9h-1zM6 34h6v1h-6zM23 34h6v1h-6z"/>
  <path fill="#ACACAC" d="M7 2h3v32h-3zM24 2h3v32h-3zM6 3h1v31h-1zM10 3h1v31h-1zM23 3h1v31h-1zM27 3h1v31h-1zM14 6h1v12h-1zM19 6h2v9h-2zM31 6h1v14h-1zM13 7h1v12h-1zM15 7h1v10h-1zM21 7h1v10h-1zM30 7h1v14h-1zM32 7h1v12h-1zM2 10h1v11h-1zM3 11h1v11h-1zM22 14h1v3h-1zM20 15h1v1h-1zM11 16h2v3h-2zM28 19h2v2h-2zM4 21h2v2h-2z"/>
</svg>
