<svg xmlns="http://www.w3.org/2000/svg" viewBox="0 0 49 34" width="49" height="34" shape-rendering="crispEdges">
  <path fill="#000000" d="M7 0h3v1h-3zM22 0h3v1h-3zM38 0h3v1h-3zM6 1h5v1h-5zM21 1h5v1h-5zM37 1h5v1h-5zM5 2h2v1h-2zM10 2h2v1h-2zM20 2h3v1h-3zM25 2h2v1h-2zM36 2h2v1h-2zM41 2h2v1h-2zM5 3h1v1h-1zM10 3h2v1h-2zM18 3h1v1h-1zM20 3h2v1h-2zM26 3h1v1h-1zM33 3h2v1h-2zM36 3h1v1h-1zM41 3h2v1h-2zM5 4h1v1h-1zM10 4h2v1h-2zM13 4h2v1h-2zM17 4h5v1h-5zM26 4h1v1h-1zM32 4h5v1h-5zM41 4h2v1h-2zM44 4h2v1h-2zM5 5h1v1h-1zM10 5h5v1h-5zM16 5h1v1h-1zM19 5h3v1h-3zM26 5h1v1h-1zM31 5h2v1h-2zM35 5h2v1h-2zM41 5h6v1h-6zM5 6h1v1h-1zM10 6h3v1h-3zM15 6h2v1h-2zM19 6h3v1h-3zM26 6h1v1h-1zM31 6h2v1h-2zM35 6h2v1h-2zM41 6h3v1h-3zM46 6h1v1h-1zM5 7h1v1h-1zM10 7h3v1h-3zM15 7h2v1h-2zM19 7h3v1h-3zM26 7h1v1h-1zM28 7h2v1h-2zM31 7h2v1h-2zM35 7h2v1h-2zM41 7h3v1h-3zM46 7h1v1h-1zM2 8h2v1h-2zM5 8h1v1h-1zM10 8h3v1h-3zM15 8h2v1h-2zM19 8h3v1h-3zM26 8h3v1h-3zM30 8h3v1h-3zM35 8h2v1h-2zM41 8h3v1h-3zM46 8h1v1h-1zM1 9h5v1h-5zM10 9h3v1h-3zM15 9h2v1h-2zM19 9h3v1h-3zM26 9h2v1h-2zM30 9h3v1h-3zM35 9h2v1h-2zM41 9h3v1h-3zM46 9h1v1h-1zM0 10h2v1h-2zM4 10h2v1h-2zM10 10h3v1h-3zM15 10h2v1h-2zM19 10h3v1h-3zM26 10h2v1h-2zM30 10h3v1h-3zM35 10h2v1h-2zM41 10h3v1h-3zM46 10h1v1h-1zM0 11h2v1h-2zM4 11h2v1h-2zM10 11h3v1h-3zM15 11h2v1h-2zM19 11h3v1h-3zM26 11h2v1h-2zM30 11h3v1h-3zM35 11h2v1h-2zM41 11h3v1h-3zM46 11h1v1h-1zM0 12h2v1h-2zM4 12h2v1h-2zM10 12h3v1h-3zM15 12h2v1h-2zM19 12h3v1h-3zM26 12h2v1h-2zM30 12h3v1h-3zM35 12h2v1h-2zM41 12h3v1h-3zM46 12h1v1h-1zM0 13h2v1h-2zM4 13h2v1h-2zM10 13h3v1h-3zM15 13h2v1h-2zM19 13h3v1h-3zM26 13h2v1h-2zM30 13h3v1h-3zM35 13h2v1h-2zM41 13h3v1h-3zM46 13h1v1h-1zM0 14h2v1h-2zM4 14h2v1h-2zM10 14h3v1h-3zM15 14h2v1h-2zM19 14h3v1h-3zM26 14h2v1h-2zM30 14h3v1h-3zM35 14h2v1h-2zM41 14h3v1h-3zM46 14h1v1h-1zM0 15h2v1h-2zM4 15h2v1h-2zM15 15h2v1h-2zM19 15h3v1h-3zM26 15h2v1h-2zM30 15h3v1h-3zM41 15h3v1h-3zM46 15h1v1h-1zM0 16h2v1h-2zM4 16h2v1h-2zM14 16h3v1h-3zM19 16h3v1h-3zM26 16h2v1h-2zM30 16h4v1h-4zM41 16h3v1h-3zM46 16h1v1h-1zM0 17h2v1h-2zM4 17h2v1h-2zM13 17h2v1h-2zM16 17h1v1h-1zM19 17h3v1h-3zM26 17h2v1h-2zM30 17h2v1h-2zM33 17h2v1h-2zM46 17h1v1h-1zM0 18h2v1h-2zM4 18h2v1h-2zM10 18h4v1h-4zM16 18h1v1h-1zM19 18h3v1h-3zM26 18h2v1h-2zM30 18h2v1h-2zM34 18h3v1h-3zM45 18h2v1h-2zM0 19h2v1h-2zM10 19h2v1h-2zM16 19h2v1h-2zM19 19h3v1h-3zM26 19h2v1h-2zM30 19h2v1h-2zM36 19h1v1h-1zM42 19h4v1h-4zM1 20h2v1h-2zM10 20h2v1h-2zM17 20h2v1h-2zM26 20h2v1h-2zM30 20h2v1h-2zM36 20h1v1h-1zM41 20h4v1h-4zM2 21h4v1h-4zM10 21h2v1h-2zM18 21h2v1h-2zM26 21h2v1h-2zM30 21h2v1h-2zM36 21h1v1h-1zM41 21h2v1h-2zM3 22h3v1h-3zM10 22h2v1h-2zM19 22h1v1h-1zM21 22h1v1h-1zM30 22h2v1h-2zM36 22h1v1h-1zM41 22h2v1h-2zM5 23h1v1h-1zM10 23h2v1h-2zM20 23h2v1h-2zM29 23h2v1h-2zM36 23h1v1h-1zM41 23h2v1h-2zM5 24h1v1h-1zM10 24h2v1h-2zM20 24h2v1h-2zM26 24h4v1h-4zM36 24h1v1h-1zM41 24h2v1h-2zM5 25h1v1h-1zM10 25h2v1h-2zM20 25h2v1h-2zM26 25h3v1h-3zM36 25h1v1h-1zM41 25h2v1h-2zM5 26h1v1h-1zM10 26h2v1h-2zM20 26h2v1h-2zM26 26h1v1h-1zM36 26h1v1h-1zM41 26h2v1h-2zM5 27h1v1h-1zM10 27h2v1h-2zM20 27h2v1h-2zM26 27h1v1h-1zM36 27h1v1h-1zM41 27h2v1h-2zM5 28h1v1h-1zM10 28h2v1h-2zM20 28h2v1h-2zM26 28h1v1h-1zM36 28h1v1h-1zM41 28h2v1h-2zM5 29h1v1h-1zM10 29h2v1h-2zM20 29h2v1h-2zM26 29h1v1h-1zM36 29h1v1h-1zM41 29h2v1h-2zM5 30h1v1h-1zM10 30h2v1h-2zM20 30h2v1h-2zM26 30h1v1h-1zM36 30h1v1h-1zM41 30h2v1h-2zM5 31h7v1h-7zM20 31h7v1h-7zM36 31h7v1h-7zM6 32h5v1h-5zM21 32h5v1h-5zM37 32h5v1h-5z"/>
  <path fill="#ACACAC" d="M7 2h3v1h-3zM23 2h2v1h-2zM38 2h3v1h-3zM6 3h4v1h-4zM22 3h4v1h-4zM37 3h4v1h-4zM6 4h4v1h-4zM22 4h4v1h-4zM37 4h4v1h-4zM6 5h4v1h-4zM17 5h2v1h-2zM22 5h4v1h-4zM33 5h2v1h-2zM37 5h4v1h-4zM6 6h4v1h-4zM13 6h2v1h-2zM17 6h2v1h-2zM22 6h4v1h-4zM33 6h2v1h-2zM37 6h4v1h-4zM44 6h2v1h-2zM6 7h4v1h-4zM13 7h2v1h-2zM17 7h2v1h-2zM22 7h4v1h-4zM33 7h2v1h-2zM37 7h4v1h-4zM44 7h2v1h-2zM6 8h4v1h-4zM13 8h2v1h-2zM17 8h2v1h-2zM22 8h4v1h-4zM29 8h1v1h-1zM33 8h2v1h-2zM37 8h4v1h-4zM44 8h2v1h-2zM6 9h4v1h-4zM13 9h2v1h-2zM17 9h2v1h-2zM22 9h4v1h-4zM28 9h2v1h-2zM33 9h2v1h-2zM37 9h4v1h-4zM44 9h2v1h-2zM2 10h2v1h-2zM6 10h4v1h-4zM13 10h2v1h-2zM17 10h2v1h-2zM22 10h4v1h-4zM28 10h2v1h-2zM33 10h2v1h-2zM37 10h4v1h-4zM44 10h2v1h-2zM2 11h2v1h-2zM6 11h4v1h-4zM13 11h2v1h-2zM17 11h2v1h-2zM22 11h4v1h-4zM28 11h2v1h-2zM33 11h2v1h-2zM37 11h4v1h-4zM44 11h2v1h-2zM2 12h2v1h-2zM6 12h4v1h-4zM13 12h2v1h-2zM17 12h2v1h-2zM22 12h4v1h-4zM28 12h2v1h-2zM33 12h2v1h-2zM37 12h4v1h-4zM44 12h2v1h-2zM2 13h2v1h-2zM6 13h4v1h-4zM13 13h2v1h-2zM17 13h2v1h-2zM22 13h4v1h-4zM28 13h2v1h-2zM33 13h2v1h-2zM37 13h4v1h-4zM44 13h2v1h-2zM2 14h2v1h-2zM6 14h4v1h-4zM13 14h2v1h-2zM17 14h2v1h-2zM22 14h4v1h-4zM28 14h2v1h-2zM33 14h2v1h-2zM37 14h4v1h-4zM44 14h2v1h-2zM2 15h2v1h-2zM6 15h9v1h-9zM17 15h2v1h-2zM22 15h4v1h-4zM28 15h2v1h-2zM33 15h8v1h-8zM44 15h2v1h-2zM2 16h2v1h-2zM6 16h8v1h-8zM17 16h2v1h-2zM22 16h4v1h-4zM28 16h2v1h-2zM34 16h7v1h-7zM44 16h2v1h-2zM2 17h2v1h-2zM6 17h7v1h-7zM17 17h2v1h-2zM22 17h4v1h-4zM28 17h2v1h-2zM35 17h11v1h-11zM2 18h2v1h-2zM6 18h4v1h-4zM17 18h2v1h-2zM22 18h4v1h-4zM28 18h2v1h-2zM37 18h8v1h-8zM2 19h8v1h-8zM18 19h1v1h-1zM22 19h4v1h-4zM28 19h2v1h-2zM37 19h5v1h-5zM3 20h7v1h-7zM19 20h7v1h-7zM28 20h2v1h-2zM37 20h4v1h-4zM6 21h4v1h-4zM20 21h6v1h-6zM28 21h2v1h-2zM37 21h4v1h-4zM6 22h4v1h-4zM20 22h1v1h-1zM22 22h8v1h-8zM37 22h4v1h-4zM6 23h4v1h-4zM22 23h7v1h-7zM37 23h4v1h-4zM6 24h4v1h-4zM22 24h4v1h-4zM37 24h4v1h-4zM6 25h4v1h-4zM22 25h4v1h-4zM37 25h4v1h-4zM6 26h4v1h-4zM22 26h4v1h-4zM37 26h4v1h-4zM6 27h4v1h-4zM22 27h4v1h-4zM37 27h4v1h-4zM6 28h4v1h-4zM22 28h4v1h-4zM37 28h4v1h-4zM6 29h4v1h-4zM22 29h4v1h-4zM37 29h4v1h-4zM6 30h4v1h-4zM22 30h4v1h-4zM37 30h4v1h-4z"/>
</svg>
