<svg xmlns="http://www.w3.org/2000/svg" viewBox="0 0 25 50" width="25" height="50" shape-rendering="crispEdges">
  <path fill="#000000" d="M8 0h2v2h-2zM15 0h2v2h-2zM7 1h1v28h-1zM17 1h1v28h-1zM8 2h1v27h-1zM16 2h1v27h-1zM20 9h4v2h-4zM19 11h2v1h-2zM24 11h1v1h-1zM1 12h4v2h-4zM18 12h2v17h-2zM0 13h1v2h-1zM5 13h1v16h-1zM4 14h1v1h-1zM6 14h1v15h-1zM24 28h1v2h-1zM22 29h2v2h-2zM0 30h1v2h-1zM21 30h1v3h-1zM1 31h2v2h-2zM20 31h1v3h-1zM22 31h1v1h-1zM3 32h1v3h-1zM16 32h4v2h-4zM2 33h1v1h-1zM4 33h5v2h-5zM16 34h2v16h-2zM7 35h2v14h-2zM19 46h2v4h-2zM4 47h3v3h-3zM18 47h1v2h-1zM21 47h1v2h-1zM3 49h1v1h-1z"/>
  <path fill="#ACACAC" d="M10 0h5v49h-5zM9 2h1v47h-1zM15 2h1v47h-1zM21 11h3v18h-3zM20 12h1v19h-1zM24 12h1v16h-1zM1 14h3v17h-3zM0 15h1v15h-1zM4 15h1v18h-1zM5 29h4v4h-4zM16 29h4v3h-4zM21 29h1v1h-1zM3 31h1v1h-1z"/>
</svg>
