<svg xmlns="http://www.w3.org/2000/svg" viewBox="0 0 59 30" width="59" height="30" shape-rendering="crispEdges">
  <path fill="#000000" d="M1 1h4v1h-4zM1 2h1v7h-1zM4 2h6v2h-6zM14 2h21v2h-21zM37 2h20v1h-20zM35 3h4v2h-4zM55 3h2v2h-2zM8 4h8v2h-8zM33 4h2v2h-2zM57 4h1v11h-1zM35 5h2v1h-2zM41 6h2v2h-2zM2 8h2v4h-2zM4 10h2v4h-2zM6 12h2v4h-2zM8 14h2v4h-2zM47 14h10v2h-10zM10 16h2v2h-2zM35 16h4v2h-4zM53 16h4v2h-4zM11 18h3v2h-3zM35 18h2v7h-2zM38 18h17v1h-17zM26 19h5v1h-5zM33 19h2v2h-2zM39 19h16v1h-16zM11 20h2v8h-2zM19 20h4v2h-4zM28 20h3v4h-3zM9 21h2v2h-2zM37 21h2v2h-2zM17 22h3v1h-3zM22 22h6v1h-6zM17 23h2v5h-2zM23 23h5v1h-5zM31 23h4v2h-4zM15 24h2v2h-2zM29 24h2v1h-2zM12 28h6v1h-6z"/>
  <path fill="#ACACAC" d="M2 2h2v6h-2zM39 3h16v3h-16zM4 4h4v6h-4zM16 4h17v15h-17zM37 5h2v11h-2zM55 5h2v9h-2zM8 6h8v8h-8zM33 6h4v10h-4zM39 6h2v12h-2zM43 6h12v8h-12zM41 8h2v10h-2zM6 10h2v2h-2zM10 14h6v2h-6zM43 14h4v4h-4zM12 16h4v2h-4zM33 16h2v3h-2zM47 16h6v2h-6zM14 18h2v6h-2zM16 19h10v1h-10zM31 19h2v4h-2zM13 20h1v8h-1zM16 20h3v2h-3zM23 20h5v2h-5zM33 21h2v2h-2zM16 22h1v2h-1zM14 24h1v4h-1zM15 26h2v2h-2z"/>
</svg>
