<svg xmlns="http://www.w3.org/2000/svg" viewBox="0 0 59 30" width="59" height="30" shape-rendering="crispEdges">
  <path fill="#000000" d="M1 1h4v1h-4zM1 2h1v1h-1zM4 2h6v1h-6zM14 2h21v1h-21zM37 2h20v1h-20zM1 3h1v1h-1zM4 3h6v1h-6zM14 3h25v1h-25zM55 3h2v1h-2zM1 4h1v1h-1zM8 4h8v1h-8zM33 4h6v1h-6zM55 4h3v1h-3zM1 5h1v1h-1zM8 5h8v1h-8zM33 5h4v1h-4zM57 5h1v1h-1zM1 6h1v1h-1zM41 6h2v1h-2zM57 6h1v1h-1zM1 7h1v1h-1zM41 7h2v1h-2zM57 7h1v1h-1zM1 8h3v1h-3zM57 8h1v1h-1zM2 9h2v1h-2zM57 9h1v1h-1zM2 10h4v1h-4zM57 10h1v1h-1zM2 11h4v1h-4zM57 11h1v1h-1zM4 12h4v1h-4zM57 12h1v1h-1zM4 13h4v1h-4zM57 13h1v1h-1zM6 14h4v1h-4zM47 14h11v1h-11zM6 15h4v1h-4zM47 15h10v1h-10zM8 16h4v1h-4zM35 16h4v1h-4zM53 16h4v1h-4zM8 17h4v1h-4zM35 17h4v1h-4zM53 17h4v1h-4zM11 18h3v1h-3zM35 18h2v1h-2zM38 18h17v1h-17zM11 19h3v1h-3zM26 19h5v1h-5zM33 19h4v1h-4zM39 19h16v1h-16zM11 20h2v1h-2zM15 20h4v1h-4zM25 20h6v1h-6zM33 20h4v1h-4zM9 21h4v1h-4zM15 21h4v1h-4zM25 21h2v1h-2zM29 21h2v1h-2zM35 21h4v1h-4zM9 22h4v1h-4zM17 22h2v1h-2zM23 22h3v1h-3zM29 22h2v1h-2zM35 22h4v1h-4zM11 23h2v1h-2zM17 23h2v1h-2zM23 23h2v1h-2zM29 23h8v1h-8zM11 24h8v1h-8zM21 24h3v1h-3zM29 24h8v1h-8zM11 25h8v1h-8zM21 25h3v1h-3zM17 26h2v1h-2zM23 26h2v1h-2zM17 27h2v1h-2zM23 27h2v1h-2zM18 28h6v1h-6z"/>
  <path fill="#ACACAC" d="M2 2h2v1h-2zM2 3h2v1h-2zM39 3h16v1h-16zM2 4h6v1h-6zM16 4h17v1h-17zM39 4h16v1h-16zM2 5h6v1h-6zM16 5h17v1h-17zM37 5h20v1h-20zM2 6h39v1h-39zM43 6h14v1h-14zM2 7h39v1h-39zM43 7h14v1h-14zM4 8h53v1h-53zM4 9h53v1h-53zM6 10h51v1h-51zM6 11h51v1h-51zM8 12h49v1h-49zM8 13h49v1h-49zM10 14h37v1h-37zM10 15h37v1h-37zM12 16h23v1h-23zM39 16h14v1h-14zM12 17h23v1h-23zM39 17h14v1h-14zM14 18h21v1h-21zM14 19h12v1h-12zM31 19h2v1h-2zM13 20h2v1h-2zM19 20h6v1h-6zM31 20h2v1h-2zM13 21h2v1h-2zM19 21h6v1h-6zM31 21h4v1h-4zM13 22h4v1h-4zM19 22h4v1h-4zM31 22h4v1h-4zM13 23h4v1h-4zM19 23h4v1h-4zM19 24h2v1h-2zM19 25h2v1h-2zM19 26h4v1h-4zM19 27h4v1h-4z"/>
</svg>