<svg xmlns="http://www.w3.org/2000/svg" viewBox="0 0 44 47" width="44" height="47" shape-rendering="crispEdges">
  <path fill="#000000" d="M23 1h18v1h-18zM20 2h5v1h-5zM40 2h2v2h-2zM20 3h4v1h-4zM42 3h1v11h-1zM20 4h2v13h-2zM26 5h2v2h-2zM32 13h10v2h-10zM2 15h4v2h-4zM18 15h2v4h-2zM38 15h2v4h-2zM1 16h1v14h-1zM2 17h1v1h-1zM4 17h2v4h-2zM15 17h3v3h-3zM30 17h8v2h-8zM12 19h3v3h-3zM30 19h6v2h-6zM6 20h1v3h-1zM15 20h2v1h-2zM7 21h5v2h-5zM34 21h2v6h-2zM12 22h2v1h-2zM8 23h4v2h-4zM30 23h2v7h-2zM32 25h2v2h-2zM2 29h2v2h-2zM28 30h3v1h-3zM3 31h3v1h-3zM28 31h2v4h-2zM4 32h2v1h-2zM5 33h3v1h-3zM26 33h2v6h-2zM6 34h2v1h-2zM7 35h3v1h-3zM24 35h2v8h-2zM8 36h2v3h-2zM10 37h2v4h-2zM16 37h4v2h-4zM12 39h2v4h-2zM18 39h4v2h-4zM14 41h5v1h-5zM20 41h2v4h-2zM14 42h4v1h-4zM26 42h1v4h-1zM27 43h1v2h-1zM21 45h5v1h-5z"/>
  <path fill="#ACACAC" d="M25 2h15v3h-15zM24 3h1v32h-1zM22 4h2v41h-2zM40 4h2v9h-2zM25 5h1v30h-1zM28 5h12v8h-12zM26 7h2v26h-2zM28 13h4v4h-4zM32 15h6v2h-6zM3 17h1v12h-1zM20 17h2v22h-2zM28 17h2v13h-2zM2 18h1v11h-1zM18 19h2v18h-2zM17 20h1v17h-1zM4 21h2v10h-2zM15 21h2v16h-2zM30 21h4v2h-4zM14 22h1v19h-1zM6 23h2v10h-2zM12 23h2v16h-2zM32 23h2v2h-2zM8 25h4v10h-4zM10 35h2v2h-2zM15 37h1v4h-1zM16 39h2v2h-2zM24 43h2v2h-2z"/>
</svg>
