<svg xmlns="http://www.w3.org/2000/svg" viewBox="0 0 44 47" width="44" height="47" shape-rendering="crispEdges">
  <path fill="#000000" d="M23 1h18v1h-18zM20 2h5v1h-5zM40 2h2v1h-2zM20 3h4v1h-4zM40 3h3v1h-3zM20 4h2v1h-2zM42 4h1v1h-1zM20 5h2v1h-2zM26 5h2v1h-2zM42 5h1v1h-1zM20 6h2v1h-2zM26 6h2v1h-2zM42 6h1v1h-1zM20 7h2v1h-2zM42 7h1v1h-1zM20 8h2v1h-2zM42 8h1v1h-1zM20 9h2v1h-2zM42 9h1v1h-1zM20 10h2v1h-2zM42 10h1v1h-1zM20 11h2v1h-2zM42 11h1v1h-1zM20 12h2v1h-2zM42 12h1v1h-1zM20 13h2v1h-2zM32 13h11v1h-11zM20 14h2v1h-2zM32 14h10v1h-10zM2 15h4v1h-4zM18 15h4v1h-4zM38 15h2v1h-2zM1 16h5v1h-5zM18 16h4v1h-4zM38 16h2v1h-2zM1 17h2v1h-2zM4 17h2v1h-2zM15 17h5v1h-5zM30 17h10v1h-10zM1 18h1v1h-1zM4 18h2v1h-2zM15 18h5v1h-5zM30 18h10v1h-10zM1 19h1v1h-1zM4 19h2v1h-2zM12 19h6v1h-6zM30 19h6v1h-6zM1 20h1v1h-1zM4 20h3v1h-3zM12 20h5v1h-5zM30 20h6v1h-6zM1 21h1v1h-1zM6 21h9v1h-9zM34 21h2v1h-2zM1 22h1v1h-1zM6 22h8v1h-8zM34 22h2v1h-2zM1 23h1v1h-1zM8 23h4v1h-4zM30 23h2v1h-2zM34 23h2v1h-2zM1 24h1v1h-1zM8 24h4v1h-4zM30 24h2v1h-2zM34 24h2v1h-2zM1 25h1v1h-1zM30 25h6v1h-6zM1 26h1v1h-1zM30 26h6v1h-6zM1 27h1v1h-1zM30 27h2v1h-2zM1 28h1v1h-1zM30 28h2v1h-2zM1 29h3v1h-3zM30 29h2v1h-2zM2 30h2v1h-2zM28 30h3v1h-3zM3 31h3v1h-3zM28 31h2v1h-2zM4 32h2v1h-2zM28 32h2v1h-2zM5 33h3v1h-3zM26 33h4v1h-4zM6 34h2v1h-2zM26 34h4v1h-4zM7 35h3v1h-3zM24 35h4v1h-4zM8 36h2v1h-2zM24 36h4v1h-4zM8 37h4v1h-4zM18 37h4v1h-4zM27 37h4v1h-4zM8 38h4v1h-4zM18 38h4v1h-4zM27 38h4v1h-4zM10 39h2v1h-2zM16 39h3v1h-3zM20 39h10v1h-10zM10 40h2v1h-2zM16 40h2v1h-2zM20 40h9v1h-9zM10 41h2v1h-2zM14 41h3v1h-3zM10 42h2v1h-2zM14 42h3v1h-3zM10 43h2v1h-2zM16 43h2v1h-2zM10 44h2v1h-2zM16 44h2v1h-2zM11 45h6v1h-6z"/>
  <path fill="#ACACAC" d="M25 2h15v1h-15zM24 3h16v1h-16zM22 4h20v1h-20zM22 5h4v1h-4zM28 5h14v1h-14zM22 6h4v1h-4zM28 6h14v1h-14zM22 7h20v1h-20zM22 8h20v1h-20zM22 9h20v1h-20zM22 10h20v1h-20zM22 11h20v1h-20zM22 12h20v1h-20zM22 13h10v1h-10zM22 14h10v1h-10zM22 15h16v1h-16zM22 16h16v1h-16zM3 17h1v1h-1zM20 17h10v1h-10zM2 18h2v1h-2zM20 18h10v1h-10zM2 19h2v1h-2zM18 19h12v1h-12zM2 20h2v1h-2zM17 20h13v1h-13zM2 21h4v1h-4zM15 21h19v1h-19zM2 22h4v1h-4zM14 22h20v1h-20zM2 23h6v1h-6zM12 23h18v1h-18zM32 23h2v1h-2zM2 24h6v1h-6zM12 24h18v1h-18zM32 24h2v1h-2zM2 25h28v1h-28zM2 26h28v1h-28zM2 27h28v1h-28zM2 28h28v1h-28zM4 29h26v1h-26zM4 30h24v1h-24zM6 31h22v1h-22zM6 32h22v1h-22zM8 33h18v1h-18zM8 34h18v1h-18zM10 35h14v1h-14zM10 36h14v1h-14zM12 37h6v1h-6zM22 37h5v1h-5zM12 38h6v1h-6zM22 38h5v1h-5zM12 39h4v1h-4zM12 40h4v1h-4zM12 41h2v1h-2zM12 42h2v1h-2zM12 43h4v1h-4zM12 44h4v1h-4z"/>
</svg>