<svg xmlns="http://www.w3.org/2000/svg" viewBox="0 0 44 47" width="44" height="47" shape-rendering="crispEdges">
  <path fill="#000000" d="M23 1h18v2h-18zM20 2h3v3h-3zM41 2h1v3h-1zM23 3h1v2h-1zM40 3h1v1h-1zM42 3h1v12h-1zM24 4h5v1h-5zM43 4h1v10h-1zM20 5h2v12h-2zM24 5h1v3h-1zM28 5h1v3h-1zM25 7h3v1h-3zM32 13h10v2h-10zM2 15h4v2h-4zM18 15h2v5h-2zM38 15h3v1h-3zM1 16h1v15h-1zM38 16h2v4h-2zM4 17h2v4h-2zM15 17h3v3h-3zM30 17h8v3h-8zM12 19h3v2h-3zM6 20h1v3h-1zM15 20h2v1h-2zM30 20h6v1h-6zM7 21h7v2h-7zM34 21h2v6h-2zM8 23h4v2h-4zM30 23h2v8h-2zM32 25h2v2h-2zM2 29h2v2h-2zM28 30h2v5h-2zM3 31h3v2h-3zM30 31h1v1h-1zM5 33h3v2h-3zM26 33h2v7h-2zM7 35h3v1h-3zM24 35h2v8h-2zM8 36h2v3h-2zM10 37h2v9h-2zM18 37h2v4h-2zM9 39h1v1h-1zM16 39h2v2h-2zM20 39h2v7h-2zM14 41h3v2h-3zM26 42h1v5h-1zM16 43h2v3h-2zM27 43h1v3h-1zM12 45h4v2h-4zM22 45h4v2h-4zM11 46h1v1h-1zM16 46h1v1h-1zM21 46h1v1h-1z"/>
  <path fill="#ACACAC" d="M24 3h16v1h-16zM29 4h12v9h-12zM22 5h2v40h-2zM25 5h3v2h-3zM41 5h1v8h-1zM24 8h5v22h-5zM29 13h3v4h-3zM32 15h6v2h-6zM2 17h2v12h-2zM20 17h2v22h-2zM29 17h1v13h-1zM17 20h3v17h-3zM4 21h2v10h-2zM14 21h3v18h-3zM30 21h4v2h-4zM6 23h2v10h-2zM12 23h2v22h-2zM32 23h2v2h-2zM8 25h4v10h-4zM24 30h4v3h-4zM24 33h2v2h-2zM10 35h2v2h-2zM17 37h1v2h-1zM14 39h2v2h-2zM14 43h2v2h-2zM24 43h2v2h-2z"/>
</svg>
