<svg xmlns="http://www.w3.org/2000/svg" viewBox="0 0 3559 90" width="3559" height="90" shape-rendering="crispEdges">
  <path fill="#ACACAC" d="M2717 20h25v1h-25zM2717 21h25v1h-25zM2711 22h8v1h-8zM2740 22h8v1h-8zM2711 23h8v1h-8zM2740 23h8v1h-8zM2746 24h8v1h-8zM2746 25h8v1h-8zM2705 26h8v1h-8zM2705 27h8v1h-8zM2699 28h8v1h-8zM2752 28h8v1h-8zM2693 29h14v1h-14zM2752 29h14v1h-14zM2693 30h8v1h-8zM2758 30h8v1h-8zM2693 31h8v1h-8zM2758 31h8v1h-8zM2687 33h8v1h-8zM2764 33h14v1h-14zM0 34h2695v1h-2695zM2764 34h96v1h-96zM2958 34h601v1h-601zM0 35h2689v1h-2689zM2776 35h84v1h-84zM2958 35h601v1h-601zM0 36h2689v1h-2689zM2776 36h84v1h-84zM2958 36h601v1h-601zM2858 37h8v1h-8zM2946 37h14v1h-14zM2858 38h14v1h-14zM2946 38h14v1h-14zM2864 39h8v1h-8zM2870 40h8v1h-8zM2935 40h13v1h-13zM2870 41h78v1h-78zM2876 42h61v1h-61zM31 45h8v1h-8zM473 45h25v1h-25zM1780 45h26v1h-26zM2251 45h20v1h-20zM2817 45h25v1h-25zM3258 45h20v1h-20zM31 46h8v1h-8zM473 46h25v1h-25zM1780 46h26v1h-26zM2251 46h20v1h-20zM2817 46h25v1h-25zM3258 46h20v1h-20zM284 48h14v1h-14zM526 48h7v1h-7zM637 48h20v1h-20zM973 48h20v1h-20zM1321 48h19v1h-19zM1603 48h8v1h-8zM1627 48h14v1h-14zM1709 48h20v1h-20zM1963 48h25v1h-25zM2428 48h8v1h-8zM2528 48h14v1h-14zM2999 48h14v1h-14zM3194 48h8v1h-8zM3376 48h8v1h-8zM284 49h14v1h-14zM526 49h7v1h-7zM637 49h20v1h-20zM973 49h20v1h-20zM1321 49h19v1h-19zM1603 49h8v1h-8zM1627 49h14v1h-14zM1709 49h20v1h-20zM1963 49h25v1h-25zM2428 49h8v1h-8zM2528 49h14v1h-14zM2999 49h14v1h-14zM3194 49h8v1h-8zM3376 49h8v1h-8zM808 51h14v1h-14zM1285 51h8v1h-8zM1427 51h19v1h-19zM3288 51h8v1h-8zM808 52h14v1h-14zM1285 52h8v1h-8zM1427 52h19v1h-19zM3288 52h8v1h-8zM1126 54h14v1h-14zM1762 54h8v1h-8zM2169 54h8v1h-8zM2340 54h13v1h-13zM2457 54h26v1h-26zM2734 54h14v1h-14zM2976 54h8v1h-8zM3035 54h19v1h-19zM3471 54h7v1h-7zM3494 54h14v1h-14zM1126 55h14v1h-14zM1762 55h8v1h-8zM2169 55h8v1h-8zM2340 55h13v1h-13zM2457 55h26v1h-26zM2734 55h14v1h-14zM2976 55h8v1h-8zM3035 55h19v1h-19zM3471 55h7v1h-7zM3494 55h14v1h-14zM90 58h8v1h-8zM160 58h8v1h-8zM366 58h20v1h-20zM844 58h25v1h-25zM914 58h8v1h-8zM1480 58h13v1h-13zM1857 58h8v1h-8zM1927 58h26v1h-26zM2010 58h14v1h-14zM2210 58h26v1h-26zM2646 58h8v1h-8zM90 59h8v1h-8zM160 59h8v1h-8zM366 59h20v1h-20zM844 59h25v1h-25zM914 59h8v1h-8zM1480 59h13v1h-13zM1857 59h8v1h-8zM1927 59h26v1h-26zM2010 59h14v1h-14zM2210 59h26v1h-26zM2646 59h8v1h-8z"/>
</svg>
