<svg xmlns="http://www.w3.org/2000/svg" viewBox="0 0 3559 90" width="3559" height="90" shape-rendering="crispEdges">
  <path fill="none" stroke="#ACACAC" stroke-width="2" stroke-linecap="butt" vector-effect="non-scaling-stroke" d="M2717 21H2742M2711 23H2719M2740 23H2748M2746 25H2754M2705 27H2713M2699 28.5H2707M2752 28.5H2760M2693 29.5H2707M2752 29.5H2766M2693 31H2701M2758 31H2766M2687 33.5H2695M2764 33.5H2778M0 35H2695M2764 35H2860M2958 35H3559M2858 37.5H2866M2946 38H2960M2858 38.5H2872M2864 39.5H2872M2870 40.5H2878M2935 40.5H2948M2870 41.5H2948M2876 42.5H2937M79 47H85M268 47H280M417 47H427M670 47H682M1111 47H1124M1265 47H1271M1454 47H1466M1603 47H1613M1856 47H1868M2297 47H2310M2452 47H2458M2641 47H2653M2790 47H2800M3043 47H3055M3484 47H3497M171 50H177M330 50H336M606 50H612M725 50H735M839 50H849M956 50H966M1059 50H1065M1087 50H1097M1173 50H1185M1357 50H1363M1516 50H1522M1792 50H1798M1911 50H1921M2025 50H2035M2142 50H2152M2245 50H2251M2273 50H2283M2359 50H2371M2544 50H2550M2703 50H2709M2979 50H2985M3098 50H3108M3212 50H3222M3329 50H3339M3432 50H3438M3460 50H3470M3546 50H3558M783 53H789M992 53H1002M1969 53H1975M2178 53H2188M3156 53H3162M3365 53H3375M107 56H113M147 56H160M240 56H246M497 56H503M528 56H538M890 56H896M1293 56H1299M1333 56H1346M1426 56H1432M1683 56H1689M1714 56H1724M2076 56H2082M2480 56H2486M2520 56H2533M2613 56H2619M2870 56H2876M2901 56H2911M3263 56H3269M63 59H75M634 59H644M795 59H807M1010 59H1016M1161 59H1174M1249 59H1261M1820 59H1830M1981 59H1993M2196 59H2202M2347 59H2360M2436 59H2448M3007 59H3017M3168 59H3180M3383 59H3389M3534 59H3547"/>
</svg>
