<svg xmlns="http://www.w3.org/2000/svg" viewBox="0 0 46 34" width="46" height="34" shape-rendering="crispEdges">
  <path fill="#000000" d="M9 1h6v1h-6zM8 2h2v2h-2zM14 2h2v4h-2zM7 3h1v3h-1zM6 4h1v3h-1zM5 5h1v3h-1zM16 5h1v5h-1zM4 6h1v3h-1zM17 6h1v4h-1zM3 7h1v3h-1zM2 8h1v2h-1zM18 8h12v2h-12zM1 9h1v4h-1zM30 9h1v3h-1zM31 10h1v2h-1zM32 11h1v3h-1zM2 12h12v2h-12zM33 12h11v2h-11zM44 13h1v4h-1zM13 14h3v1h-3zM14 15h2v1h-2zM15 16h3v1h-3zM38 16h6v2h-6zM16 17h2v15h-2zM42 18h2v2h-2zM36 20h7v1h-7zM36 21h6v1h-6zM26 22h11v1h-11zM26 23h10v1h-10zM24 24h3v1h-3zM24 25h2v1h-2zM22 26h3v1h-3zM22 27h2v3h-2zM20 30h3v1h-3zM20 31h2v1h-2zM17 32h4v1h-4z"/>
  <path fill="#ACACAC" d="M10 2h4v10h-4zM8 4h2v8h-2zM7 6h1v6h-1zM14 6h2v8h-2zM6 7h1v5h-1zM5 8h1v4h-1zM4 9h1v3h-1zM2 10h2v2h-2zM16 10h14v6h-14zM30 12h2v10h-2zM32 14h12v2h-12zM18 16h12v6h-12zM32 16h6v4h-6zM38 18h4v2h-4zM32 20h4v2h-4zM18 22h8v2h-8zM18 24h6v2h-6zM18 26h4v4h-4zM18 30h2v2h-2z"/>
</svg>
