<svg xmlns="http://www.w3.org/2000/svg" viewBox="0 0 46 34" width="46" height="34" shape-rendering="crispEdges">
  <path fill="#000000" d="M9 1h6v1h-6zM8 2h2v1h-2zM14 2h2v1h-2zM7 3h3v1h-3zM14 3h2v1h-2zM6 4h2v1h-2zM14 4h2v1h-2zM5 5h3v1h-3zM14 5h3v1h-3zM4 6h3v1h-3zM16 6h2v1h-2zM3 7h3v1h-3zM16 7h2v1h-2zM2 8h3v1h-3zM16 8h14v1h-14zM1 9h3v1h-3zM16 9h15v1h-15zM1 10h1v1h-1zM30 10h2v1h-2zM1 11h1v1h-1zM30 11h3v1h-3zM1 12h13v1h-13zM32 12h12v1h-12zM2 13h12v1h-12zM32 13h13v1h-13zM13 14h3v1h-3zM44 14h1v1h-1zM14 15h2v1h-2zM44 15h1v1h-1zM15 16h3v1h-3zM38 16h7v1h-7zM16 17h2v1h-2zM38 17h6v1h-6zM16 18h2v1h-2zM42 18h2v1h-2zM16 19h2v1h-2zM42 19h2v1h-2zM16 20h2v1h-2zM36 20h7v1h-7zM16 21h2v1h-2zM36 21h6v1h-6zM16 22h2v1h-2zM26 22h11v1h-11zM16 23h2v1h-2zM26 23h10v1h-10zM16 24h2v1h-2zM24 24h3v1h-3zM16 25h2v1h-2zM24 25h2v1h-2zM16 26h2v1h-2zM22 26h3v1h-3zM16 27h2v1h-2zM22 27h2v1h-2zM16 28h2v1h-2zM22 28h2v1h-2zM16 29h2v1h-2zM22 29h2v1h-2zM16 30h2v1h-2zM20 30h3v1h-3zM16 31h2v1h-2zM20 31h2v1h-2zM17 32h4v1h-4z"/>
  <path fill="#ACACAC" d="M10 2h4v1h-4zM10 3h4v1h-4zM8 4h6v1h-6zM8 5h6v1h-6zM7 6h9v1h-9zM6 7h10v1h-10zM5 8h11v1h-11zM4 9h12v1h-12zM2 10h28v1h-28zM2 11h28v1h-28zM14 12h18v1h-18zM14 13h18v1h-18zM16 14h28v1h-28zM16 15h28v1h-28zM18 16h20v1h-20zM18 17h20v1h-20zM18 18h24v1h-24zM18 19h24v1h-24zM18 20h18v1h-18zM18 21h18v1h-18zM18 22h8v1h-8zM18 23h8v1h-8zM18 24h6v1h-6zM18 25h6v1h-6zM18 26h4v1h-4zM18 27h4v1h-4zM18 28h4v1h-4zM18 29h4v1h-4zM18 30h2v1h-2zM18 31h2v1h-2z"/>
</svg>