<svg xmlns="http://www.w3.org/2000/svg" viewBox="0 0 46 34" width="46" height="34" shape-rendering="crispEdges">
  <path fill="#000000" d="M15 1h4v1h-4zM14 2h6v1h-6zM14 3h2v1h-2zM18 3h3v1h-3zM14 4h2v1h-2zM18 4h4v1h-4zM14 5h2v1h-2zM20 5h2v1h-2zM14 6h2v1h-2zM20 6h3v1h-3zM10 7h6v1h-6zM22 7h2v1h-2zM9 8h7v1h-7zM22 8h3v1h-3zM8 9h2v1h-2zM14 9h4v1h-4zM24 9h2v1h-2zM7 10h3v1h-3zM14 10h4v1h-4zM24 10h3v1h-3zM6 11h4v1h-4zM14 11h4v1h-4zM24 11h4v1h-4zM5 12h3v1h-3zM14 12h4v1h-4zM26 12h3v1h-3zM4 13h4v1h-4zM14 13h4v1h-4zM26 13h4v1h-4zM4 14h2v1h-2zM16 14h2v1h-2zM28 14h2v1h-2zM3 15h3v1h-3zM16 15h2v1h-2zM28 15h3v1h-3zM2 16h2v1h-2zM16 16h2v1h-2zM30 16h2v1h-2zM1 17h3v1h-3zM16 17h2v1h-2zM30 17h2v1h-2zM1 18h2v1h-2zM30 18h2v1h-2zM1 19h1v1h-1zM30 19h3v1h-3zM1 20h13v1h-13zM30 20h14v1h-14zM1 21h13v1h-13zM32 21h13v1h-13zM2 22h13v1h-13zM32 22h13v1h-13zM13 23h3v1h-3zM44 23h1v1h-1zM14 24h2v1h-2zM44 24h1v1h-1zM15 25h3v1h-3zM38 25h7v1h-7zM16 26h2v1h-2zM38 26h6v1h-6zM16 27h4v1h-4zM38 27h6v1h-6zM17 28h3v1h-3zM42 28h2v1h-2zM18 29h4v1h-4zM36 29h8v1h-8zM19 30h3v1h-3zM36 30h7v1h-7zM20 31h2v1h-2zM36 31h6v1h-6zM21 32h16v1h-16z"/>
  <path fill="#ACACAC" d="M16 3h2v1h-2zM16 4h2v1h-2zM16 5h4v1h-4zM16 6h4v1h-4zM16 7h6v1h-6zM16 8h6v1h-6zM10 9h4v1h-4zM18 9h6v1h-6zM10 10h4v1h-4zM18 10h6v1h-6zM10 11h4v1h-4zM18 11h6v1h-6zM8 12h6v1h-6zM18 12h8v1h-8zM8 13h6v1h-6zM18 13h8v1h-8zM6 14h10v1h-10zM18 14h10v1h-10zM6 15h10v1h-10zM18 15h10v1h-10zM4 16h12v1h-12zM18 16h12v1h-12zM4 17h12v1h-12zM18 17h12v1h-12zM3 18h27v1h-27zM2 19h28v1h-28zM14 20h16v1h-16zM14 21h18v1h-18zM15 22h17v1h-17zM16 23h28v1h-28zM16 24h28v1h-28zM18 25h20v1h-20zM18 26h20v1h-20zM20 27h18v1h-18zM20 28h22v1h-22zM22 29h14v1h-14zM22 30h14v1h-14zM22 31h14v1h-14z"/>
</svg>