<svg xmlns="http://www.w3.org/2000/svg" viewBox="0 0 46 34" width="46" height="34" shape-rendering="crispEdges">
  <path fill="#000000" d="M15 1h4v2h-4zM14 2h1v12h-1zM19 2h1v3h-1zM15 3h1v11h-1zM18 3h1v2h-1zM20 3h1v4h-1zM21 4h1v3h-1zM22 6h1v3h-1zM10 7h4v2h-4zM23 7h1v2h-1zM9 8h1v4h-1zM24 8h1v4h-1zM8 9h1v3h-1zM16 9h2v9h-2zM25 9h1v3h-1zM7 10h1v4h-1zM26 10h1v4h-1zM6 11h1v3h-1zM27 11h1v3h-1zM5 12h1v4h-1zM28 12h1v4h-1zM4 13h1v3h-1zM29 13h1v3h-1zM3 15h1v3h-1zM30 15h1v6h-1zM2 16h1v3h-1zM31 16h1v5h-1zM1 17h1v5h-1zM32 19h1v4h-1zM2 20h12v3h-12zM33 20h11v3h-11zM44 21h1v5h-1zM14 22h1v3h-1zM13 23h1v1h-1zM15 23h1v3h-1zM16 25h2v3h-2zM38 25h6v3h-6zM18 27h2v3h-2zM17 28h1v1h-1zM42 28h2v2h-2zM20 29h2v3h-2zM36 29h6v3h-6zM19 30h1v1h-1zM42 30h1v1h-1zM21 32h16v1h-16z"/>
  <path fill="#ACACAC" d="M16 3h2v6h-2zM18 5h2v22h-2zM20 7h2v22h-2zM10 9h4v11h-4zM22 9h2v23h-2zM8 12h2v8h-2zM24 12h2v20h-2zM6 14h2v6h-2zM14 14h2v8h-2zM26 14h2v18h-2zM4 16h2v4h-2zM28 16h2v16h-2zM3 18h1v2h-1zM16 18h2v7h-2zM2 19h1v1h-1zM30 21h2v11h-2zM15 22h1v1h-1zM32 23h12v2h-12zM32 25h6v4h-6zM38 28h4v1h-4zM32 29h4v3h-4z"/>
</svg>
